<svg xmlns="http://www.w3.org/2000/svg" width="275.46" height="181.93" viewBox="0 0 275.46 181.93"><g id="Capa_2" data-name="Capa 2"><g id="OBJECTS"><path d="M18.35,175.88c-22.42-13.21-25.1-48.28-3.58-66.16,28.84-24,4.3-45.11,3.58-67C17.67,22,28.14-2.81,75.87.26s83.25,39.37,144.64,13C262.71-5,286.38,42,270.48,82.49S243,126.61,249,153.21s-26.55,26.54-35.07,26.9S18.35,175.88,18.35,175.88Z" style="fill:#d2eaf9;fill-rule:evenodd"/><path d="M96.88,38.16a8.59,8.59,0,0,0-2.08-.08s0,0,0,0A2.07,2.07,0,0,0,92.74,36h-.07a4.77,4.77,0,0,0,.07-.76,4.47,4.47,0,0,0-3.93-4.43A8.54,8.54,0,0,0,89,28.89a8.34,8.34,0,0,0-15-5,5.9,5.9,0,0,0-2.62-.61,6,6,0,0,0-2,.36c0-.23,0-.46,0-.7a9.84,9.84,0,0,0-19.68,0,7.56,7.56,0,0,0,0,.83,2,2,0,0,0-.55-.08A2.06,2.06,0,0,0,47.3,25a6.16,6.16,0,0,0-1.5-.19,6,6,0,0,0-5.95,5.95,5.75,5.75,0,0,0,.3,1.86,2.09,2.09,0,0,0-.35,0,2.06,2.06,0,0,0-1.87,1.21,4.24,4.24,0,0,0-7.2,3h0a2,2,0,0,0-1-.26A2.05,2.05,0,0,0,28,37.63c-.21-.07-4.78-1.44-8.53.6a7.38,7.38,0,0,0-3.61,4.35h84.79A4.14,4.14,0,0,0,96.88,38.16ZM50.78,27.41l0,0-.11-.15.06-.06Z" style="fill:#fff;fill-rule:evenodd"/><path d="M126.06,31.65a3.85,3.85,0,1,1-3.85-3.84A3.85,3.85,0,0,1,126.06,31.65Z" style="fill:#fff;fill-rule:evenodd"/><path d="M258.7,44.33a3.85,3.85,0,1,1-3.84-3.85A3.84,3.84,0,0,1,258.7,44.33Z" style="fill:#fff;fill-rule:evenodd"/><path d="M177.12,10.85A3.85,3.85,0,1,1,173.27,7,3.84,3.84,0,0,1,177.12,10.85Z" style="fill:#a8d3f1;fill-rule:evenodd"/><path d="M238.91,114.82a3.85,3.85,0,1,1-3.85-3.84A3.85,3.85,0,0,1,238.91,114.82Z" style="fill:#a8d3f1;fill-rule:evenodd"/><path d="M45.91,64.66a3.85,3.85,0,1,1-3.85-3.84A3.84,3.84,0,0,1,45.91,64.66Z" style="fill:#a8d3f1;fill-rule:evenodd"/><path d="M84,99.33a2.21,2.21,0,1,1-2.2-2.21A2.2,2.2,0,0,1,84,99.33Z" style="fill:#a8d3f1;fill-rule:evenodd"/><path d="M171.64,46.78a2.21,2.21,0,1,1-2.21-2.21A2.2,2.2,0,0,1,171.64,46.78Z" style="fill:#a8d3f1;fill-rule:evenodd"/><path d="M176.5,81a2.21,2.21,0,1,1-2.2-2.21A2.19,2.19,0,0,1,176.5,81Z" style="fill:#fff;fill-rule:evenodd"/><path d="M88.75,62.49a2.21,2.21,0,1,1-2.21-2.21A2.21,2.21,0,0,1,88.75,62.49Z" style="fill:#fff;fill-rule:evenodd"/><path d="M248,79.8a2.21,2.21,0,1,1-2.21-2.2A2.21,2.21,0,0,1,248,79.8Z" style="fill:#fff;fill-rule:evenodd"/><path d="M40.43,174.17S32,163.14,37.94,163c0,0-13-24.8-2.13-22.83,0,0-8.93-25.85,3.42-22,0,0,1.76-14.59,7-12.65s1.68,14.78,1.68,14.78,9.62,2.06-2.94,19.85c0,0,11.32-2.5-1.79,22.09,0,0,5.71-.3.84,11.92Z" style="fill:#79b0dd;fill-rule:evenodd"/><path d="M42.83,175.71a.46.46,0,0,1-.43-.33c-7.31-26.09,1.31-61.51,1.4-61.86a.45.45,0,1,1,.87.21c-.09.35-8.65,35.54-1.41,61.41a.44.44,0,0,1-.31.55Z" style="fill:#a8d3f1"/><path d="M33.2,173.66c-7.55-2.46-5.27-6.65-3.93-6.94s-18.92-12.89-8.34-15.91c0,0-12.72-10.53-8.19-15.75,4.84-5.59,14.75,6.25,16.24,12.4,0,0,8.65-6.71,6.7,14.53,0,0,7.57-3.82,2.49,12.18Z" style="fill:#fff;fill-rule:evenodd"/><path d="M46.59,174.17s11.27-13,3.91-11.9c0,0,17.32-17.61,6.7-17.83,0,0,14.64-15,5.82-19.78s-11.51,17.66-11.51,17.66-10.58-7.26-6.49,18.1c0,0-7.37-2.9-1,13.52Z" style="fill:#a8d3f1;fill-rule:evenodd"/><path d="M37,177.51a.45.45,0,0,1-.44-.34,115.54,115.54,0,0,0-4.59-13.86c-2.8-7-7.49-16.63-13.89-22.83a.45.45,0,0,1,.62-.64c6.52,6.31,11.27,16.07,14.1,23.15a115.63,115.63,0,0,1,4.63,14,.44.44,0,0,1-.32.54Z" style="fill:#a8d3f1"/><path d="M45.41,175.71a.45.45,0,0,1-.45-.42c-.31-5.61,2.08-14.83,7.09-27.4,3.73-9.33,7.6-17.14,7.64-17.21a.44.44,0,0,1,.6-.21.45.45,0,0,1,.2.6c-.15.31-15.37,31.07-14.64,44.17a.45.45,0,0,1-.42.47Z" style="fill:#79b0dd"/><ellipse cx="137.73" cy="176.56" rx="133.3" ry="5.36" style="fill:#9ac9ec"/><ellipse cx="207.93" cy="60.06" rx="23.29" ry="53.06" style="fill:#a8d3f1"/><path d="M207.93,173.42a.9.9,0,0,1-.9-.9V53.71a.9.9,0,1,1,1.79,0V172.52A.89.89,0,0,1,207.93,173.42Z" style="fill:#86bde6"/><path d="M207.93,90.31a.89.89,0,0,1-.64-1.52l14.06-14.06a.89.89,0,0,1,1.26,0,.9.9,0,0,1,0,1.27l-14.05,14A.89.89,0,0,1,207.93,90.31Z" style="fill:#86bde6"/><path d="M207.93,72.67a.9.9,0,0,1-.64-.27.89.89,0,0,1,0-1.26L214.43,64a.89.89,0,0,1,1.26,1.26l-7.13,7.13A.9.9,0,0,1,207.93,72.67Z" style="fill:#86bde6"/><path d="M207.93,83.79a.89.89,0,0,1-.64-.26L195.45,71.69a.9.9,0,0,1,0-1.27.89.89,0,0,1,1.26,0l11.85,11.85a.89.89,0,0,1-.63,1.52Z" style="fill:#86bde6"/><path d="M205,173.56s-.79-5.27-7.69-9.36c0,0,8.2,2.54,11.42,7.85,0,0,2.85-18.16,5-23.67l-.7,23.78s6.75-9.91,13.87-13.47c0,0-8.1,8.8-8.19,14.87Z" style="fill:#9ac9ec"/><line x1="62.8" y1="173.22" x2="62.8" y2="37.84" style="fill:none;stroke:#86bde6;stroke-linecap:round;stroke-miterlimit:10;stroke-width:2.68177px"/><polygon points="53.64 27.38 57.96 46.22 62.8 46.22 62.8 27.38 53.64 27.38" style="fill:#fff"/><polygon points="71.96 27.38 67.64 46.22 62.8 46.22 62.8 27.38 71.96 27.38" style="fill:#fff"/><path d="M70.68,28.4,66.82,45.2h-8L54.92,28.4H70.68m1.28-1Zm0,0H53.64L58,46.22h9.68L72,27.38Z" style="fill:#86bde6"/><polygon points="62.8 22.8 53.64 27.38 62.8 27.38 71.96 27.38 62.8 22.8" style="fill:#1579b9"/><rect x="62.3" y="27.45" width="1" height="18.5" style="fill:#86bde6"/><path id="Trazado_6244" data-name="Trazado 6244" d="M177.18,95.79l-6.34-6.37a3.37,3.37,0,0,0-4.76-.06l0,0-39.79,39.45-16.82-17a3.36,3.36,0,0,0-4.75,0l-6.4,6.33a3.4,3.4,0,0,0,0,4.78l25.55,25.75a3.4,3.4,0,0,0,4.78,0l48.54-48.18a3.37,3.37,0,0,0,.06-4.76l0,0Z" style="fill:#47ccab"/></g></g></svg>