<svg xmlns="http://www.w3.org/2000/svg" width="382" height="74" viewBox="0 0 382 74"><g id="Capa_2" data-name="Capa 2"><g id="Capa_1-2" data-name="Capa 1"><line x1="12" y1="22" x2="32" y2="22" style="fill:none;stroke:#fff;stroke-linecap:round;stroke-linejoin:round;stroke-width:4px"/><line x1="22" y1="32" x2="32" y2="32" style="fill:none;stroke:#fff;stroke-linecap:round;stroke-linejoin:round;stroke-width:4px"/><line x1="2" y1="42" x2="32" y2="42" style="fill:none;stroke:#fff;stroke-linecap:round;stroke-linejoin:round;stroke-width:4px"/><line x1="22" y1="52" x2="32" y2="52" style="fill:none;stroke:#fff;stroke-linecap:round;stroke-linejoin:round;stroke-width:4px"/><line x1="12" y1="62" x2="32" y2="62" style="fill:none;stroke:#fff;stroke-linecap:round;stroke-linejoin:round;stroke-width:4px"/><rect x="32" y="22" width="40" height="40" style="fill:none;stroke:#fff;stroke-linecap:round;stroke-linejoin:round;stroke-width:4px"/><rect x="72" y="22" width="20" height="40" style="fill:none;stroke:#fff;stroke-linecap:round;stroke-linejoin:round;stroke-width:4px"/><line x1="47" y1="32" x2="57" y2="32" style="fill:none;stroke:#fff;stroke-linecap:round;stroke-linejoin:round;stroke-width:4px"/><polygon points="42 2 52 22 32 22 22 2 42 2" style="fill:none;stroke:#fff;stroke-linecap:round;stroke-linejoin:round;stroke-width:4px"/><polygon points="92 22 102 2 82 2 72 22 92 22" style="fill:none;stroke:#fff;stroke-linecap:round;stroke-linejoin:round;stroke-width:4px"/><circle cx="47" cy="67" r="5" style="fill:none;stroke:#fff;stroke-linecap:round;stroke-linejoin:round;stroke-width:4px"/><circle cx="77" cy="67" r="5" style="fill:none;stroke:#fff;stroke-linecap:round;stroke-linejoin:round;stroke-width:4px"/><path d="M149.8,24.51v37h-4.86V32l-11.8,29.53h-4.33L117,32.09V61.52H112.1v-37h5.82l13.14,31.08L144,24.51Z" style="fill:#fff"/><path d="M183.66,32.2V61.52H178.8V54.63a9.86,9.86,0,0,1-4,5.47,11.71,11.71,0,0,1-6.65,1.9A10.87,10.87,0,0,1,160,58.72q-3.15-3.28-3.15-9.43V32.2h4.86V48.81c0,2.92.74,5.17,2.24,6.75A7.94,7.94,0,0,0,170,57.94a8.29,8.29,0,0,0,6.4-2.59c1.61-1.73,2.41-4.24,2.41-7.56V32.2Z" style="fill:#fff"/><path d="M210.71,34a11.23,11.23,0,0,1,4.14,5.72V22h4.86V61.52h-4.86V54a11.23,11.23,0,0,1-4.14,5.72,12.09,12.09,0,0,1-7.24,2.13,13.28,13.28,0,0,1-6.94-1.81,12.52,12.52,0,0,1-4.78-5.21,17.26,17.26,0,0,1-1.74-8,17.42,17.42,0,0,1,1.74-8,12.48,12.48,0,0,1,4.78-5.24,13.28,13.28,0,0,1,6.94-1.81A12.09,12.09,0,0,1,210.71,34Zm-13,5q-2.7,2.85-2.7,7.88c0,3.34.9,6,2.7,7.87a9.38,9.38,0,0,0,7.18,2.86A10,10,0,0,0,210,56.29a9.23,9.23,0,0,0,3.55-3.77,11.84,11.84,0,0,0,1.29-5.63,12,12,0,0,0-1.29-5.66A9,9,0,0,0,210,37.46a10.14,10.14,0,0,0-5.15-1.31A9.41,9.41,0,0,0,197.68,39Z" style="fill:#fff"/><path d="M246.7,34a11.11,11.11,0,0,1,4.14,5.72V32.2h4.86V61.52h-4.86V54a11.11,11.11,0,0,1-4.14,5.72,12.07,12.07,0,0,1-7.24,2.13,13.31,13.31,0,0,1-6.94-1.81,12.58,12.58,0,0,1-4.78-5.21,17.26,17.26,0,0,1-1.73-8,17.42,17.42,0,0,1,1.73-8,12.55,12.55,0,0,1,4.78-5.24,13.31,13.31,0,0,1,6.94-1.81A12.07,12.07,0,0,1,246.7,34Zm-13,5q-2.7,2.85-2.7,7.88c0,3.34.9,6,2.7,7.87a9.39,9.39,0,0,0,7.18,2.86A10,10,0,0,0,246,56.29a9.36,9.36,0,0,0,3.55-3.77,12,12,0,0,0,1.28-5.63,12.08,12.08,0,0,0-1.28-5.66A9.11,9.11,0,0,0,246,37.46a10.18,10.18,0,0,0-5.16-1.31A9.43,9.43,0,0,0,233.67,39Z" style="fill:#fff"/><path d="M277.44,57.25v4.27H273.8q-4.49,0-6.7-2.14c-1.48-1.42-2.21-3.81-2.21-7.15V36.42h-4.38V32.2h4.38V24.88h4.91V32.2h7.58v4.22H269.8V52.33c0,1.89.35,3.18,1,3.88a5,5,0,0,0,3.61,1Z" style="fill:#fff"/><path d="M310.12,47.9H286.67q.16,5,2.86,7.53a9.31,9.31,0,0,0,6.6,2.51,9.49,9.49,0,0,0,5.9-1.79,7.41,7.41,0,0,0,2.91-4.78h5.18A12.26,12.26,0,0,1,303,60.56a15.81,15.81,0,0,1-6.62,1.33,15.12,15.12,0,0,1-7.48-1.81,12.86,12.86,0,0,1-5.1-5.21,16.44,16.44,0,0,1-1.84-8,16.59,16.59,0,0,1,1.84-8,12.82,12.82,0,0,1,5.1-5.24,15.12,15.12,0,0,1,7.48-1.81,14.76,14.76,0,0,1,7.45,1.81,12.47,12.47,0,0,1,4.86,4.86,13.69,13.69,0,0,1,1.68,6.73A14.75,14.75,0,0,1,310.12,47.9Zm-5.77-7.8A7.8,7.8,0,0,0,301,36.85a10.19,10.19,0,0,0-4.65-1.07,9.65,9.65,0,0,0-6.73,2.48q-2.72,2.49-2.94,7.29h18.75A10,10,0,0,0,304.35,40.1Z" style="fill:#fff"/><path d="M348.57,23.76,335.49,49V61.52H326.3V49L313.22,23.76h10.46L331,39.14l7.26-15.38Z" style="fill:#fff"/><path d="M369.29,32.89a9.32,9.32,0,0,1,3.63,4.22V31.72H382v29.8h-9.08V56.13a9.24,9.24,0,0,1-3.63,4.21,10.73,10.73,0,0,1-5.87,1.55,12.06,12.06,0,0,1-6.6-1.84,12.62,12.62,0,0,1-4.59-5.31,18.46,18.46,0,0,1-1.68-8.12,18.37,18.37,0,0,1,1.68-8.14,12.62,12.62,0,0,1,4.59-5.29,12.06,12.06,0,0,1,6.6-1.84A10.82,10.82,0,0,1,369.29,32.89Zm-7.66,8.39a7.5,7.5,0,0,0-1.79,5.34A7.5,7.5,0,0,0,361.63,52a6.71,6.71,0,0,0,9.45-.05,7.44,7.44,0,0,0,1.84-5.29,7.41,7.41,0,0,0-1.84-5.31,6.21,6.21,0,0,0-4.73-2A6.14,6.14,0,0,0,361.63,41.28Z" style="fill:#fff"/></g></g></svg>