<svg id="Capa_1" data-name="Capa 1" xmlns="http://www.w3.org/2000/svg" width="400" height="90" viewBox="0 0 400 90"><line x1="20" y1="30" x2="40" y2="30" style="fill:none;stroke:#603813;stroke-linecap:round;stroke-linejoin:round;stroke-width:4px"/><line x1="30" y1="40" x2="40" y2="40" style="fill:none;stroke:#603813;stroke-linecap:round;stroke-linejoin:round;stroke-width:4px"/><line x1="10" y1="50" x2="40" y2="50" style="fill:none;stroke:#603813;stroke-linecap:round;stroke-linejoin:round;stroke-width:4px"/><line x1="30" y1="60" x2="40" y2="60" style="fill:none;stroke:#603813;stroke-linecap:round;stroke-linejoin:round;stroke-width:4px"/><line x1="20" y1="70" x2="40" y2="70" style="fill:none;stroke:#603813;stroke-linecap:round;stroke-linejoin:round;stroke-width:4px"/><rect x="40" y="30" width="40" height="40" style="fill:none;stroke:#c69c6d;stroke-linecap:round;stroke-linejoin:round;stroke-width:4px"/><rect x="80" y="30" width="20" height="40" style="fill:none;stroke:#c69c6d;stroke-linecap:round;stroke-linejoin:round;stroke-width:4px"/><line x1="55" y1="40" x2="65" y2="40" style="fill:none;stroke:#c69c6d;stroke-linecap:round;stroke-linejoin:round;stroke-width:4px"/><polygon points="50 10 60 30 40 30 30 10 50 10" style="fill:none;stroke:#c69c6d;stroke-linecap:round;stroke-linejoin:round;stroke-width:4px"/><polygon points="100 30 110 10 90 10 80 30 100 30" style="fill:none;stroke:#c69c6d;stroke-linecap:round;stroke-linejoin:round;stroke-width:4px"/><circle cx="55" cy="75" r="5" style="fill:none;stroke:#000;stroke-linecap:round;stroke-linejoin:round;stroke-width:4px"/><circle cx="85" cy="75" r="5" style="fill:none;stroke:#000;stroke-linecap:round;stroke-linejoin:round;stroke-width:4px"/><path d="M157.8,32.51v37h-4.86V40l-11.8,29.53h-4.33L125,40.09V69.52H120.1v-37h5.82l13.14,31.08L152,32.51Z"/><path d="M191.66,40.2V69.52H186.8V62.63a9.86,9.86,0,0,1-4,5.47,11.71,11.71,0,0,1-6.65,1.9A10.87,10.87,0,0,1,168,66.72q-3.15-3.28-3.15-9.43V40.2h4.86V56.81c0,2.92.74,5.17,2.24,6.75A7.94,7.94,0,0,0,178,65.94a8.29,8.29,0,0,0,6.4-2.59c1.61-1.73,2.41-4.24,2.41-7.56V40.2Z"/><path d="M218.71,42a11.23,11.23,0,0,1,4.14,5.72V30h4.86V69.52h-4.86V62a11.23,11.23,0,0,1-4.14,5.72,12.09,12.09,0,0,1-7.24,2.13,13.28,13.28,0,0,1-6.94-1.81,12.52,12.52,0,0,1-4.78-5.21,17.26,17.26,0,0,1-1.74-8,17.42,17.42,0,0,1,1.74-8,12.48,12.48,0,0,1,4.78-5.24,13.28,13.28,0,0,1,6.94-1.81A12.09,12.09,0,0,1,218.71,42Zm-13,5q-2.7,2.85-2.7,7.88c0,3.34.9,6,2.7,7.87a9.38,9.38,0,0,0,7.18,2.86A10,10,0,0,0,218,64.29a9.23,9.23,0,0,0,3.55-3.77,11.84,11.84,0,0,0,1.29-5.63,12,12,0,0,0-1.29-5.66A9,9,0,0,0,218,45.46a10.14,10.14,0,0,0-5.15-1.31A9.41,9.41,0,0,0,205.68,47Z"/><path d="M254.7,42a11.11,11.11,0,0,1,4.14,5.72V40.2h4.86V69.52h-4.86V62a11.11,11.11,0,0,1-4.14,5.72,12.07,12.07,0,0,1-7.24,2.13,13.31,13.31,0,0,1-6.94-1.81,12.58,12.58,0,0,1-4.78-5.21,17.26,17.26,0,0,1-1.73-8,17.42,17.42,0,0,1,1.73-8,12.55,12.55,0,0,1,4.78-5.24,13.31,13.31,0,0,1,6.94-1.81A12.07,12.07,0,0,1,254.7,42Zm-13,5q-2.7,2.85-2.7,7.88c0,3.34.9,6,2.7,7.87a9.39,9.39,0,0,0,7.18,2.86A10,10,0,0,0,254,64.29a9.36,9.36,0,0,0,3.55-3.77,12,12,0,0,0,1.28-5.63,12.08,12.08,0,0,0-1.28-5.66A9.11,9.11,0,0,0,254,45.46a10.18,10.18,0,0,0-5.16-1.31A9.43,9.43,0,0,0,241.67,47Z"/><path d="M285.44,65.25v4.27H281.8q-4.49,0-6.7-2.14c-1.48-1.42-2.21-3.81-2.21-7.15V44.42h-4.38V40.2h4.38V32.88h4.91V40.2h7.58v4.22H277.8V60.33c0,1.89.35,3.18,1,3.88a5,5,0,0,0,3.61,1Z"/><path d="M318.12,55.9H294.67q.16,5,2.86,7.53a9.31,9.31,0,0,0,6.6,2.51,9.49,9.49,0,0,0,5.9-1.79,7.41,7.41,0,0,0,2.91-4.78h5.18A12.26,12.26,0,0,1,311,68.56a15.81,15.81,0,0,1-6.62,1.33,15.12,15.12,0,0,1-7.48-1.81,12.86,12.86,0,0,1-5.1-5.21,16.44,16.44,0,0,1-1.84-8,16.59,16.59,0,0,1,1.84-8,12.82,12.82,0,0,1,5.1-5.24,15.12,15.12,0,0,1,7.48-1.81,14.76,14.76,0,0,1,7.45,1.81,12.47,12.47,0,0,1,4.86,4.86,13.69,13.69,0,0,1,1.68,6.73A14.75,14.75,0,0,1,318.12,55.9Zm-5.77-7.8A7.8,7.8,0,0,0,309,44.85a10.19,10.19,0,0,0-4.65-1.07,9.65,9.65,0,0,0-6.73,2.48q-2.72,2.49-2.94,7.29h18.75A10,10,0,0,0,312.35,48.1Z"/><path d="M356.57,31.76,343.49,57V69.52H334.3V57L321.22,31.76h10.46L339,47.14l7.26-15.38Z"/><path d="M377.29,40.89a9.32,9.32,0,0,1,3.63,4.22V39.72H390v29.8h-9.08V64.13a9.24,9.24,0,0,1-3.63,4.21,10.73,10.73,0,0,1-5.87,1.55,12.06,12.06,0,0,1-6.6-1.84,12.62,12.62,0,0,1-4.59-5.31,18.46,18.46,0,0,1-1.68-8.12,18.37,18.37,0,0,1,1.68-8.14,12.62,12.62,0,0,1,4.59-5.29,12.06,12.06,0,0,1,6.6-1.84A10.82,10.82,0,0,1,377.29,40.89Zm-7.66,8.39a7.5,7.5,0,0,0-1.79,5.34A7.5,7.5,0,0,0,369.63,60a6.71,6.71,0,0,0,9.45-.05,7.44,7.44,0,0,0,1.84-5.29,7.41,7.41,0,0,0-1.84-5.31,6.21,6.21,0,0,0-4.73-2A6.14,6.14,0,0,0,369.63,49.28Z"/></svg>