<svg xmlns="http://www.w3.org/2000/svg" width="120" height="120" viewBox="0 0 120 120">
    <g fill="none" fill-rule="evenodd">
        <path fill="#F7F7F7" fill-rule="nonzero" d="M111.03 80.25H92.94c-.24 2.69-.49 5.39-.73 8.08-.16 1.8-1.24 3.27-3.04 3.27l-52.67.02c-1.03-.28-1.52-.73-2.59-.73l-9.08-9.91V41.35c-.85-2.62-1.92-5.09-2.25-7.83h17.38c.62-5 1.85-9.93 3.67-14.62C46.69 11 51.84 6.66 57.85 1.05 26.4 2.33 1.28 28.23 1.28 60c0 32.58 26.42 59 59 59 24.39 0 45.33-14.81 54.31-35.92-.95-1.22-2.14-2.22-3.56-2.83"/>
        <path fill="#E3E3E3" fill-rule="nonzero" d="M33.23 91.09l31.51.2c1.39.15 2.81.05 4.17-.28-.71.18-2.64-7.71-2.78-8.5-.51-2.83.06-5.51.43-8.34-6 3.85-13.21 5.79-20.33 5.48-4.45-.19-8.56-1.69-12.03-4.48-2.08-1.67-5.45-2.79-7-4.97-.92-1.3-1.56-2.77-2.31-4.18-.06-.11-.13-.23-.25-.23-.12-.01-.19.21-.07.23l-.02 14c-.1 1.04.89 1.67 1.83 2.13l6.85 8.94z"/>
        <path stroke="#514E4F" stroke-linecap="round" stroke-linejoin="round" stroke-width=".984" d="M98.19 52.28v18.24"/>
        <path fill="#E3E3E3" fill-rule="nonzero" d="M48.04 45.62c-.7-.47-1.52.74-1.08 1.47.84 1.38 4.87.82 6.4.83 3.05.02 6.09.04 9.14.07 7.77.06 15.54.11 23.31.17 5.08.04 10.21-.07 15.26.29-1.24 1.25-2.44 2.55-3.66 3.83H35.16l.85-2.84 3.21-4.42 8.82.6z"/>
        <path stroke="#514E4F" stroke-linecap="round" stroke-linejoin="round" stroke-width=".984" d="M119 60c0-32.58-26.41-59-59-59C27.32 1 1 27.32 1 60c0 32.58 26.42 59 59 59 24.17 0 44.94-14.53 54.06-35.33.7-1.59-.48-3.38-2.22-3.38l-10.78-.01"/>
        <path stroke="#514E4F" stroke-linecap="round" stroke-linejoin="round" stroke-width=".984" d="M98.19 52.28H33.96l-9.4-10.26M88.79 42.02l2.74 2.99M24.56 42.02v38.91M68.29 91.19H33.96l-9.4-10.26M33.96 91.19V69.3M33.96 65.19V52.28"/>
        <path stroke="#514E4F" stroke-linecap="round" stroke-linejoin="round" stroke-width=".984" d="M33.96 52.28l5.26-7.27h65.4l-6.43 7.27M86.86 33.79H22.49M89 42.02l-2.14-8.23M24.62 42.02l-2.13-8.23M89 42.02H31.57"/>
        <path fill="#5A70DC" fill-rule="nonzero" d="M102.37 81.78c-.01.29-.02.57-.04.85-.66 9.74-8.88 17.33-18.74 17.11-2.1-.05-4.11-.44-5.98-1.14-7.15-2.65-12.17-9.6-11.99-17.65.13-5.97 3.1-11.22 7.59-14.47 3.14-2.28 7.02-3.58 11.19-3.49 1.72.04 3.37.31 4.94.78 7.69 2.35 13.22 9.59 13.03 18.01"/>
        <path stroke="#5A70DC" stroke-linecap="round" stroke-linejoin="round" stroke-width=".827" d="M102.37 81.78c-.01.29-.02.57-.04.85-.66 9.74-8.88 17.33-18.74 17.11-2.1-.05-4.11-.44-5.98-1.14-7.15-2.65-12.17-9.6-11.99-17.65.13-5.97 3.1-11.22 7.59-14.47 3.14-2.28 7.02-3.58 11.19-3.49 1.72.04 3.37.31 4.94.78 7.69 2.35 13.22 9.59 13.03 18.01z"/>
        <path fill="#435CD7" fill-rule="nonzero" d="M65.61 81.38c.04 4.95 2.07 9.73 5.68 13.18 1.44 1.37 3.13 2.54 5.04 3.41 8.97 4.1 19.52.39 23.98-8.29.08-.15.15-.3.22-.45-1.41.35-2.94 1.3-4.21 1.75-2.9 1.04-5.46 1.26-8.52 1-4.18-.34-8.75-1.86-12.57-3.55-2.53-1.12-4.82-2.66-6.9-4.47-.82-.72-1.95-1.61-2.72-2.58"/>
        <path stroke="#0223C9" stroke-linecap="round" stroke-linejoin="round" stroke-width=".827" d="M102.37 81.7c-.01.29-.02.57-.04.85-.66 9.74-8.88 17.33-18.74 17.11-2.1-.05-4.11-.44-5.98-1.14-7.15-2.65-12.17-9.6-11.99-17.65.13-5.97 3.1-11.22 7.59-14.47 3.14-2.28 7.02-3.58 11.19-3.49 1.72.04 3.37.31 4.94.78 7.7 2.35 13.22 9.58 13.03 18.01z"/>
        <path fill="#435CD7" fill-rule="nonzero" d="M76.26 93.11c3.73 1.93 8.21 1.49 12.34.71 2.58-.49 5.32-1.2 7.07-3.16 1.66-1.87 2.09-4.49 2.45-6.96-.4 0-.71.32-1.01.59-.9.82-2.08 1.27-3.25 1.6-4.28 1.18-8.92.86-13.1-.63-4.19-1.48-7.93-4.09-11-7.3-.38 2.9-.18 5.92.88 8.65 1.06 2.72 3.02 5.15 5.62 6.5"/>
        <path stroke="#0223C9" stroke-linecap="round" stroke-linejoin="round" stroke-width=".827" d="M73.12 71.53a14.594 14.594 0 0 1 11.19-4.81c1.37.03 2.69.25 3.94.63 3.44 1.05 6.35 3.32 8.2 6.31 1.45 2.33 2.26 5.1 2.19 8.05 0 .23-.02.46-.03.68-.53 7.77-7.08 13.83-14.95 13.65a14.48 14.48 0 0 1-4.77-.9c-2.25-.83-4.23-2.2-5.8-3.94a14.577 14.577 0 0 1-3.77-10.14c.06-2.58.78-4.98 1.99-7.06"/>
        <path stroke="#F8F8F8" stroke-linecap="round" stroke-width=".827" d="M88.76 73.71l-6.81-.12a3.876 3.876 0 0 0-.17 7.75l4.45.1c2.14.05 3.83 1.82 3.78 3.96a3.883 3.883 0 0 1-3.96 3.79l-7.55-.14M84.22 71.22l-.45 20.15"/>
        <path stroke="#514E4F" stroke-linecap="round" stroke-linejoin="round" stroke-width=".984" d="M72 25.53l6.27 1.66M74.31 29.5l1.66-6.27M34.24 17.36l5.5 9.83M32.07 25.03l9.83-5.5M14.39 80.21h10.15M52.43 25.75c0-1.24 1.01-2.25 2.25-2.25s2.25 1.01 2.25 2.25S55.92 28 54.68 28c-1.25 0-2.25-1-2.25-2.25zM63.37 11.89c0-1.24 1.01-2.25 2.25-2.25s2.25 1.01 2.25 2.25-1.01 2.25-2.25 2.25c-1.25 0-2.25-1-2.25-2.25z"/>
    </g>
</svg>
