<svg xmlns="http://www.w3.org/2000/svg" xmlns:xlink="http://www.w3.org/1999/xlink" width="304.31" height="162.95" viewBox="0 0 304.31 162.95"><defs><linearGradient id="linear-gradient" x1="159.88" y1="76.5" x2="132.14" y2="73.79" gradientUnits="userSpaceOnUse"><stop offset="0" stop-color="#97cbe8"/><stop offset="1" stop-color="#c1e1e8"/></linearGradient><linearGradient id="linear-gradient-2" x1="241.96" y1="76.88" x2="270.91" y2="73.87" xlink:href="#linear-gradient"/><linearGradient id="linear-gradient-3" x1="162.19" y1="113.7" x2="192.89" y2="113.7" gradientTransform="translate(63.84 291.24) rotate(-90)" gradientUnits="userSpaceOnUse"><stop offset="0" stop-color="#f4b073"/><stop offset="1" stop-color="#e2995c"/></linearGradient><linearGradient id="linear-gradient-4" x1="192.89" y1="113.7" x2="223.6" y2="113.7" gradientTransform="translate(94.54 321.95) rotate(-90)" gradientUnits="userSpaceOnUse"><stop offset="0" stop-color="#e09e4f"/><stop offset="1" stop-color="#cd8b3a"/></linearGradient><linearGradient id="linear-gradient-5" x1="218.68" y1="113.7" x2="240.11" y2="113.7" gradientTransform="translate(115.7 343.1) rotate(-90)" xlink:href="#linear-gradient-3"/><linearGradient id="linear-gradient-6" x1="162.19" y1="85.63" x2="187.63" y2="85.63" gradientTransform="translate(349.81 171.26) rotate(-180)" xlink:href="#linear-gradient-4"/><linearGradient id="linear-gradient-7" x1="187.18" y1="96.37" x2="218.68" y2="96.37" gradientTransform="matrix(1, 0, 0, 1, 0, 0)" xlink:href="#linear-gradient-3"/><linearGradient id="linear-gradient-8" x1="72.79" y1="100.03" x2="82.74" y2="144.96" gradientUnits="userSpaceOnUse"><stop offset="0" stop-color="#473071"/><stop offset="1" stop-color="#382a5f"/></linearGradient><linearGradient id="linear-gradient-9" x1="72.64" y1="55.16" x2="62.84" y2="63.15" gradientUnits="userSpaceOnUse"><stop offset="0" stop-color="#fdd7db"/><stop offset="1" stop-color="#fbadaf"/></linearGradient><linearGradient id="linear-gradient-10" x1="-71.91" y1="42.94" x2="-60.3" y2="50.58" gradientTransform="matrix(-0.99, 0.12, 0.12, 0.99, -6.61, 13.92)" gradientUnits="userSpaceOnUse"><stop offset="0" stop-color="#ff5b96"/><stop offset="1" stop-color="#da3362"/></linearGradient><linearGradient id="linear-gradient-11" x1="75.93" y1="73.97" x2="64.77" y2="90.26" gradientTransform="matrix(1, 0, 0, 1, 0, 0)" xlink:href="#linear-gradient-10"/><linearGradient id="linear-gradient-12" x1="70.78" y1="70.44" x2="59.62" y2="86.72" gradientTransform="matrix(1, 0, 0, 1, 0, 0)" xlink:href="#linear-gradient-10"/><linearGradient id="linear-gradient-13" x1="96.86" y1="132.56" x2="131.14" y2="132.56" gradientTransform="translate(51.17 -30.6) rotate(19.64)" xlink:href="#linear-gradient-3"/><linearGradient id="linear-gradient-14" x1="94.69" y1="115.62" x2="117.34" y2="115.62" gradientTransform="translate(45.02 -28.9) rotate(19.64)" xlink:href="#linear-gradient-4"/><linearGradient id="linear-gradient-15" x1="90.18" y1="108.26" x2="104.9" y2="108.26" gradientTransform="translate(42.05 -26.48) rotate(19.64)" xlink:href="#linear-gradient-3"/></defs><g id="Capa_2" data-name="Capa 2"><g id="OBJECTS"><path d="M168.9,31.84C113,65.92,61.94-2,18.05,52.53c-45.92,57,14.25,105.92,14.25,105.92H255.51s59.7-37.58,47-90.73S230.64-5.77,168.9,31.84Z" style="fill:#d2eaf9"/><path d="M88.9,18C99.63,43.72,170,31,156.14,8.34c-5.71-9.36-22.51,6.13-32.89-2.43C108.17-6.54,82.35,2.21,88.9,18Z" style="fill:#d2eaf9"/><path d="M29.93,157s8.18-12.22,1.87-12c0,0,12.11-27.1.7-24.28,0,0,7.69-27.93-5.1-23,0,0-2.86-15.3-8.24-12.9s-.77,15.74-.77,15.74-10,2.83,4.46,20.78c0,0-12.14-1.87,3.39,23.23,0,0-6.06.07-.08,12.66Z" style="fill:#79b0dd;fill-rule:evenodd"/><path d="M27.49,158.77a.5.5,0,0,0,.43-.38c6-28.08-5.56-64.93-5.68-65.3a.46.46,0,0,0-.59-.31.47.47,0,0,0-.31.59c.12.37,11.56,37,5.65,64.83a.48.48,0,0,0,.37.56Z" style="fill:#a8d3f1"/><path d="M37.53,156c7.81-3.11,5.12-7.38,3.68-7.61S60.34,133.44,49,131c0,0,12.73-12,7.6-17.21-5.5-5.57-15.17,7.62-16.33,14.22,0,0-9.61-6.51-6.1,15.81,0,0-8.27-3.52-1.81,13Z" style="fill:#fff;fill-rule:evenodd"/><path d="M23.41,157.39s-12.8-13-4.94-12.31c0,0-19.5-17.44-8.3-18.39,0,0-16.49-14.83-7.48-20.51s13.36,17.88,13.36,17.88,10.69-8.39,8.08,18.7c0,0,7.6-3.57,2,14.22Z" style="fill:#a8d3f1;fill-rule:evenodd"/><path d="M33.81,160.28a.47.47,0,0,0,.43-.39,126.36,126.36,0,0,1,3.92-15c2.49-7.58,6.79-18.09,13.14-25.07a.48.48,0,0,0,0-.67.46.46,0,0,0-.66,0c-6.47,7.11-10.83,17.75-13.34,25.43a125.6,125.6,0,0,0-3.95,15.08.48.48,0,0,0,.38.55Z" style="fill:#a8d3f1"/><path d="M24.77,158.94a.47.47,0,0,0,.44-.48c-.05-5.94-3.2-15.53-9.36-28.47-4.57-9.62-9.19-17.6-9.24-17.68a.47.47,0,0,0-.64-.18.48.48,0,0,0-.18.65c.19.32,18.35,31.8,18.47,45.69a.48.48,0,0,0,.48.47Z" style="fill:#79b0dd"/><ellipse cx="147.04" cy="158.45" rx="129.17" ry="4.49" style="fill:#9ac9ec"/><path d="M118.07,87.37A4.07,4.07,0,1,1,114,83.29,4.07,4.07,0,0,1,118.07,87.37Z" style="fill:#fff;fill-rule:evenodd"/><path d="M290.34,81.31a4.07,4.07,0,1,1-4.07-4.07A4.07,4.07,0,0,1,290.34,81.31Z" style="fill:#fff;fill-rule:evenodd"/><circle cx="280.53" cy="51.93" r="4.07" style="fill:#a8d3f1"/><circle cx="67.87" cy="12.04" r="4.07" style="fill:#a8d3f1"/><path d="M105.86,56a4.07,4.07,0,1,1-4.07-4.07A4.08,4.08,0,0,1,105.86,56Z" style="fill:#a8d3f1;fill-rule:evenodd"/><path d="M51,99.9a2.34,2.34,0,1,1-2.34-2.34A2.33,2.33,0,0,1,51,99.9Z" style="fill:#a8d3f1;fill-rule:evenodd"/><path d="M282.87,115.51a2.34,2.34,0,1,1-2.34-2.34A2.34,2.34,0,0,1,282.87,115.51Z" style="fill:#fff;fill-rule:evenodd"/><path d="M150.31,139.64a2.34,2.34,0,1,1-2.34-2.33A2.34,2.34,0,0,1,150.31,139.64Z" style="fill:#fff;fill-rule:evenodd"/><path d="M8.4,76.1H98.23a7.8,7.8,0,0,0-3.83-4.6c-4-2.17-8.81-.71-9-.64a2.18,2.18,0,0,0-1.89-1.12,2.15,2.15,0,0,0-1,.28h0a4.48,4.48,0,0,0-7.62-3.21,2.11,2.11,0,0,0-2.35-1.24,6.4,6.4,0,0,0,.31-2,6.31,6.31,0,0,0-6.31-6.31,6.4,6.4,0,0,0-1.58.21,2.21,2.21,0,0,0-2-1.36,2.26,2.26,0,0,0-.58.09,8.49,8.49,0,0,0,0-.88,10.43,10.43,0,1,0-20.85,0c0,.25,0,.5,0,.74a6.25,6.25,0,0,0-4.92.27A8.82,8.82,0,0,0,20.67,61.6a9,9,0,0,0,.24,2,4.72,4.72,0,0,0-4.17,4.69,4.26,4.26,0,0,0,.08.8h-.08a2.19,2.19,0,0,0-2.19,2.19,0,0,0,0,1,0,0,9.1,9.1,0,0,0-2.2.09A4.39,4.39,0,0,0,8.4,76.1ZM61.29,59.84l.06.07-.11.15-.05,0A1.86,1.86,0,0,1,61.29,59.84Z" style="fill:#fff;fill-rule:evenodd"/><rect x="160.01" y="19.98" width="82.57" height="106.61" style="fill:#21334f"/><path d="M241.84,24.38H160.76a2.21,2.21,0,0,1-2.2-2.2h0a2.2,2.2,0,0,1,2.2-2.2h81.08a2.2,2.2,0,0,1,2.2,2.2h0A2.21,2.21,0,0,1,241.84,24.38Z" style="fill:#5f8caa"/><rect x="161.03" y="126.59" width="80.54" height="13.06" style="fill:#5f8caa"/><path d="M241.92,143.87H160.68a2.11,2.11,0,0,1-2.12-2.11h0a2.12,2.12,0,0,1,2.12-2.12h81.24a2.12,2.12,0,0,1,2.12,2.12h0A2.11,2.11,0,0,1,241.92,143.87Z" style="fill:#79b0dd"/><polygon points="162.19 24.38 133.76 18.54 133.76 129.35 162.19 126.58 162.19 24.38" style="fill:url(#linear-gradient)"/><polygon points="240.11 24.55 268.54 18.7 268.54 129.52 240.11 126.75 240.11 24.55" style="fill:url(#linear-gradient-2)"/><rect x="132.04" y="18.54" width="1.72" height="110.81" style="fill:#21334f"/><rect x="268.84" y="18.54" width="1.72" height="110.81" style="fill:#21334f"/><rect x="166.53" y="131.08" width="4.89" height="4.89" style="fill:#f92d5e"/><path d="M171.73,136.28h-5.5v-5.5h5.5Zm-4.89-.62h4.28v-4.27h-4.28Z" style="fill:#fff"/><rect x="171.42" y="131.08" width="4.89" height="4.89" style="fill:#fcb735"/><path d="M176.62,136.28h-5.5v-5.5h5.5Zm-4.89-.62H176v-4.27h-4.28Z" style="fill:#fff"/><rect x="193.63" y="130.32" width="15.35" height="6.42" rx="1.37" style="fill:#79b0dd"/><rect x="227.65" y="131.08" width="4.89" height="4.89" style="fill:#f92d5e"/><path d="M232.84,136.28h-5.5v-5.5h5.5Zm-4.89-.62h4.28v-4.27H228Z" style="fill:#fff"/><rect x="232.54" y="131.08" width="4.89" height="4.89" style="fill:#fcb735"/><path d="M237.73,136.28h-5.5v-5.5h5.5Zm-4.89-.62h4.28v-4.27h-4.28Z" style="fill:#fff"/><path d="M171.76,143.87h9.1a0,0,0,0,1,0,0V154a2.18,2.18,0,0,1-2.18,2.18h-4.73a2.18,2.18,0,0,1-2.18-2.18V143.87A0,0,0,0,1,171.76,143.87Z" style="fill:#21334f"/><path d="M223.1,143.87h9.1a0,0,0,0,1,0,0V154a2.18,2.18,0,0,1-2.18,2.18h-4.73A2.18,2.18,0,0,1,223.1,154V143.87A0,0,0,0,1,223.1,143.87Z" style="fill:#21334f"/><rect x="164.82" y="98.35" width="25.44" height="30.71" transform="translate(291.24 -63.84) rotate(90)" style="fill:url(#linear-gradient-3)"/><rect x="195.52" y="98.35" width="25.44" height="30.71" transform="translate(321.95 -94.54) rotate(90)" style="fill:url(#linear-gradient-4)"/><rect x="216.68" y="102.99" width="25.44" height="21.43" transform="translate(343.1 -115.7) rotate(90)" style="fill:url(#linear-gradient-5)"/><rect x="162.19" y="70.28" width="25.44" height="30.71" transform="translate(349.81 171.26) rotate(180)" style="fill:url(#linear-gradient-6)"/><rect x="187.18" y="91.79" width="31.5" height="9.15" style="fill:url(#linear-gradient-7)"/><path d="M87,96.75a1.41,1.41,0,1,0,.24-2A1.42,1.42,0,0,0,87,96.75Z" style="fill:#00081a"/><path d="M86.38,96.42c.08-.16.48-1.18.48-1.18l2.62,1.05L89,97.56Z" style="fill:#00081a"/><path d="M53.75,145.92,51.2,149a.83.83,0,0,0,.06,1.2l2.43,2.08a.84.84,0,0,0,.78.16l.23-.07a.8.8,0,0,1,.84.24c1.2,1.37,5.35,5.78,8.27,4.36,3.44-1.68-4.57-5.53-4.75-6.57s-.05-1.22-.05-1.22Z" style="fill:#00081a"/><path d="M55.67,148.83a2.44,2.44,0,0,0,3.38-.67l-4.21-2.67A2.44,2.44,0,0,0,55.67,148.83Z" style="fill:#fcb2ba"/><path d="M84.84,151.5l.17,4a.84.84,0,0,0,.85.85l3.19-.1a.83.83,0,0,0,.69-.41l.13-.21a.79.79,0,0,1,.78-.39c1.81.21,7.85.67,9-2.35,1.41-3.55-7.1-1-7.94-1.65s-.86-.87-.86-.87Z" style="fill:#00081a"/><path d="M88.22,152.36a2.5,2.5,0,0,0,2.17-2.8l-5.16.91A2.5,2.5,0,0,0,88.22,152.36Z" style="fill:#fcb2ba"/><path d="M59.64,148.61l-5.47-3.44,11.91-20.29a4.07,4.07,0,0,0,.51-2.71l-3-18.78,7.78-.78,4,6,1.25,14.24a4.13,4.13,0,0,1-.74,2.75Z" style="fill:#37255c"/><path d="M63.54,100.32c-.5,5.73,2.44,10.44,7.85,15.33,3.49,3.15,5.87,5.4,7.12,6.6a4.46,4.46,0,0,1,1.29,2.4l4.77,25.93L91,149.51,87.82,123a9.13,9.13,0,0,0-.62-2.36l-9.13-22Z" style="fill:url(#linear-gradient-8)"/><path d="M62.82,61.17a14.5,14.5,0,0,1-3.31-4.4,10.76,10.76,0,0,1,12.72-4.85Z" style="fill:#442f6e"/><path d="M72.25,51.92a15.93,15.93,0,0,1,0,7.79c-1.14,3.55-1.52,3.68-4.44,3.49v3.74l-5.65-1.21s1.31-6,.36-7-1.24-2.28-.31-3c1.48-1,2.87.66,3,1.42l.4-3S71,51.63,72.25,51.92Z" style="fill:url(#linear-gradient-9)"/><path d="M70.67,52.58l.06,0,8.71-3a.29.29,0,0,0,.19-.38.3.3,0,0,0-.38-.19l-8.71,3a.31.31,0,0,0-.19.38A.31.31,0,0,0,70.67,52.58Z" style="fill:#cc0a31"/><path d="M72.24,52.07,59.45,56.76s-2.2-6.15,3.36-8.54S71.7,49.15,72.24,52.07Z" style="fill:url(#linear-gradient-10)"/><path d="M70.57,79.18l.22,1.94a1,1,0,0,0,.37.67l13.35,10.5a1,1,0,0,0,1,.14l2.11-.84a1,1,0,0,1,1,.12l1.82,1.36a1.43,1.43,0,0,1,.46,1.75l-.46,1a1,1,0,0,1-1,.58l-3.54-.23a.94.94,0,0,1-.43-.13L66.55,85.23a2.58,2.58,0,0,1-1.22-1.61l-.76-3a1,1,0,0,1,.71-1.2l4.06-1.06A1,1,0,0,1,70.57,79.18Z" style="fill:#fa7782"/><path d="M78.58,95.19s-2.3-20.14-6.66-25.47-10.35-5.9-12.27-1.07S60.73,79.59,62,84.9c2.26,9.92.84,13.59,1.25,15.42l15.59-1.15Z" style="fill:url(#linear-gradient-11)"/><polygon points="62.07 72.1 63.28 81.9 64.64 81.9 64.13 72.91 62.07 72.1" style="fill:#bc2060"/><polygon points="70.42 71.84 71.93 81.31 70.38 81.43 69.27 71.84 70.42 71.84" style="fill:#bc2060"/><path d="M70.57,80.21l.22,1.94a1,1,0,0,0,.37.67l13.35,10.5a1,1,0,0,0,1,.14l2.11-.84a1,1,0,0,1,1,.13l1.82,1.35a1.45,1.45,0,0,1,.46,1.76l-.46,1a1,1,0,0,1-1,.59l-3.54-.24a1.06,1.06,0,0,1-.43-.12L66.55,86.27a2.6,2.6,0,0,1-1.22-1.62l-.76-3a1,1,0,0,1,.71-1.2l4.06-1.06A1,1,0,0,1,70.57,80.21Z" style="fill:#fcb2ba"/><polygon points="70.3 71.54 71.29 80.75 63.81 81.31 62.07 72.1 70.3 71.54" style="fill:url(#linear-gradient-12)"/><rect x="101.28" y="117.21" width="25.44" height="30.71" transform="translate(-37.92 46.02) rotate(-19.64)" style="fill:url(#linear-gradient-13)"/><rect x="95.12" y="112.46" width="21.79" height="6.33" transform="translate(-32.69 42.35) rotate(-19.64)" style="fill:url(#linear-gradient-14)"/><rect x="92.09" y="101.64" width="10.9" height="13.24" transform="translate(-30.71 39.07) rotate(-19.64)" style="fill:url(#linear-gradient-15)"/><path d="M106.81,151.72,87.32,97.17a.53.53,0,0,1,.32-.69.55.55,0,0,1,.7.33l19.13,53.53L134.62,141a.54.54,0,1,1,.35,1Z" style="fill:#00081a"/><circle cx="107.18" cy="150.98" r="5.39" style="fill:#00081a"/><circle cx="107.18" cy="151.03" r="1.88" style="fill:#fdbe42"/><path d="M86.56,97.87a1.43,1.43,0,0,0,2,.24,1.42,1.42,0,1,0-1.75-2.23A1.42,1.42,0,0,0,86.56,97.87Z" style="fill:#30353d"/></g></g></svg>