<svg xmlns="http://www.w3.org/2000/svg" xmlns:xlink="http://www.w3.org/1999/xlink" width="275.46" height="181.93" viewBox="0 0 275.46 181.93"><defs><linearGradient id="linear-gradient" x1="92.71" y1="106.77" x2="185.79" y2="167.97" gradientUnits="userSpaceOnUse"><stop offset="0" stop-color="#fdbe42"/><stop offset="1" stop-color="#f7931e"/></linearGradient><linearGradient id="linear-gradient-2" x1="69.53" y1="144.53" x2="108.93" y2="144.53" xlink:href="#linear-gradient"/><linearGradient id="linear-gradient-3" x1="157.56" y1="137.9" x2="192" y2="160.95" xlink:href="#linear-gradient"/><linearGradient id="linear-gradient-4" x1="176.38" y1="117.49" x2="201.99" y2="117.49" gradientUnits="userSpaceOnUse"><stop offset="0" stop-color="#e09e4f"/><stop offset="1" stop-color="#cd8b3a"/></linearGradient><linearGradient id="linear-gradient-5" x1="180.39" y1="104.13" x2="198.27" y2="104.13" gradientUnits="userSpaceOnUse"><stop offset="0" stop-color="#f4b073"/><stop offset="1" stop-color="#e2995c"/></linearGradient><linearGradient id="linear-gradient-6" x1="121.31" y1="129.26" x2="161.67" y2="129.26" gradientUnits="userSpaceOnUse"><stop offset="0" stop-color="#473071"/><stop offset="1" stop-color="#382a5f"/></linearGradient><linearGradient id="linear-gradient-7" x1="315.94" y1="65.85" x2="303.5" y2="75.99" gradientTransform="matrix(-0.99, 0.13, 0.13, 0.99, 442.23, -43.22)" gradientUnits="userSpaceOnUse"><stop offset="0" stop-color="#fdd7db"/><stop offset="1" stop-color="#fbadaf"/></linearGradient><linearGradient id="linear-gradient-8" x1="297.41" y1="44.29" x2="312.13" y2="53.99" gradientTransform="translate(-158.15 11.86) rotate(-0.53)" gradientUnits="userSpaceOnUse"><stop offset="0" stop-color="#ff5b96"/><stop offset="1" stop-color="#da3362"/></linearGradient><linearGradient id="linear-gradient-9" x1="139.1" y1="84.73" x2="159.03" y2="103.41" gradientTransform="matrix(1, 0, 0, 1, 0, 0)" xlink:href="#linear-gradient-8"/><linearGradient id="linear-gradient-10" x1="113.57" y1="96.8" x2="152.6" y2="96.8" gradientTransform="matrix(1, 0, 0, 1, 0, 0)" xlink:href="#linear-gradient-7"/><linearGradient id="linear-gradient-11" x1="142.06" y1="80.71" x2="162.34" y2="99.71" gradientTransform="matrix(1, 0, 0, 1, 0, 0)" xlink:href="#linear-gradient-8"/></defs><g id="Capa_2" data-name="Capa 2"><g id="OBJECTS"><path d="M18.35,175.88c-22.42-13.21-25.1-48.28-3.58-66.16,28.84-24,4.3-45.11,3.58-67C17.67,22,28.14-2.81,75.87.26s83.25,39.37,144.64,13C262.71-5,286.38,42,270.48,82.49S243,126.61,249,153.21s-26.55,26.54-35.07,26.9S18.35,175.88,18.35,175.88Z" style="fill:#d2eaf9;fill-rule:evenodd"/><path d="M96.88,38.16a8.59,8.59,0,0,0-2.08-.08s0,0,0,0A2.07,2.07,0,0,0,92.74,36h-.07a4.77,4.77,0,0,0,.07-.76,4.47,4.47,0,0,0-3.93-4.43A8.54,8.54,0,0,0,89,28.89a8.34,8.34,0,0,0-15-5,5.9,5.9,0,0,0-2.62-.61,6,6,0,0,0-2,.36c0-.23,0-.46,0-.7a9.84,9.84,0,0,0-19.68,0,7.56,7.56,0,0,0,0,.83,2,2,0,0,0-.55-.08A2.06,2.06,0,0,0,47.3,25a6.16,6.16,0,0,0-1.5-.19,6,6,0,0,0-5.95,5.95,5.75,5.75,0,0,0,.3,1.86,2.09,2.09,0,0,0-.35,0,2.06,2.06,0,0,0-1.87,1.21,4.24,4.24,0,0,0-7.2,3h0a2,2,0,0,0-1-.26A2.05,2.05,0,0,0,28,37.63c-.21-.07-4.78-1.44-8.53.6a7.38,7.38,0,0,0-3.61,4.35h84.79A4.14,4.14,0,0,0,96.88,38.16ZM50.78,27.41l0,0-.11-.15.06-.06Z" style="fill:#fff;fill-rule:evenodd"/><path d="M126.06,31.65a3.85,3.85,0,1,1-3.85-3.84A3.85,3.85,0,0,1,126.06,31.65Z" style="fill:#fff;fill-rule:evenodd"/><path d="M258.7,44.33a3.85,3.85,0,1,1-3.84-3.85A3.84,3.84,0,0,1,258.7,44.33Z" style="fill:#fff;fill-rule:evenodd"/><path d="M177.12,10.85A3.85,3.85,0,1,1,173.27,7,3.84,3.84,0,0,1,177.12,10.85Z" style="fill:#a8d3f1;fill-rule:evenodd"/><path d="M238.91,114.82a3.85,3.85,0,1,1-3.85-3.84A3.85,3.85,0,0,1,238.91,114.82Z" style="fill:#a8d3f1;fill-rule:evenodd"/><path d="M45.91,64.66a3.85,3.85,0,1,1-3.85-3.84A3.84,3.84,0,0,1,45.91,64.66Z" style="fill:#a8d3f1;fill-rule:evenodd"/><path d="M84,99.33a2.21,2.21,0,1,1-2.2-2.21A2.2,2.2,0,0,1,84,99.33Z" style="fill:#a8d3f1;fill-rule:evenodd"/><path d="M171.64,46.78a2.21,2.21,0,1,1-2.21-2.21A2.2,2.2,0,0,1,171.64,46.78Z" style="fill:#a8d3f1;fill-rule:evenodd"/><path d="M176.5,81a2.21,2.21,0,1,1-2.2-2.21A2.19,2.19,0,0,1,176.5,81Z" style="fill:#fff;fill-rule:evenodd"/><path d="M88.75,62.49a2.21,2.21,0,1,1-2.21-2.21A2.21,2.21,0,0,1,88.75,62.49Z" style="fill:#fff;fill-rule:evenodd"/><path d="M248,79.8a2.21,2.21,0,1,1-2.21-2.2A2.21,2.21,0,0,1,248,79.8Z" style="fill:#fff;fill-rule:evenodd"/><path d="M40.43,174.17S32,163.14,37.94,163c0,0-13-24.8-2.13-22.83,0,0-8.93-25.85,3.42-22,0,0,1.76-14.59,7-12.65s1.68,14.78,1.68,14.78,9.62,2.06-2.94,19.85c0,0,11.32-2.5-1.79,22.09,0,0,5.71-.3.84,11.92Z" style="fill:#79b0dd;fill-rule:evenodd"/><path d="M42.83,175.71a.46.46,0,0,1-.43-.33c-7.31-26.09,1.31-61.51,1.4-61.86a.45.45,0,1,1,.87.21c-.09.35-8.65,35.54-1.41,61.41a.44.44,0,0,1-.31.55Z" style="fill:#a8d3f1"/><path d="M33.2,173.66c-7.55-2.46-5.27-6.65-3.93-6.94s-18.92-12.89-8.34-15.91c0,0-12.72-10.53-8.19-15.75,4.84-5.59,14.75,6.25,16.24,12.4,0,0,8.65-6.71,6.7,14.53,0,0,7.57-3.82,2.49,12.18Z" style="fill:#fff;fill-rule:evenodd"/><path d="M46.59,174.17s11.27-13,3.91-11.9c0,0,17.32-17.61,6.7-17.83,0,0,14.64-15,5.82-19.78s-11.51,17.66-11.51,17.66-10.58-7.26-6.49,18.1c0,0-7.37-2.9-1,13.52Z" style="fill:#a8d3f1;fill-rule:evenodd"/><path d="M37,177.51a.45.45,0,0,1-.44-.34,115.54,115.54,0,0,0-4.59-13.86c-2.8-7-7.49-16.63-13.89-22.83a.45.45,0,0,1,.62-.64c6.52,6.31,11.27,16.07,14.1,23.15a115.63,115.63,0,0,1,4.63,14,.44.44,0,0,1-.32.54Z" style="fill:#a8d3f1"/><path d="M45.41,175.71a.45.45,0,0,1-.45-.42c-.31-5.61,2.08-14.83,7.09-27.4,3.73-9.33,7.6-17.14,7.64-17.21a.44.44,0,0,1,.6-.21.45.45,0,0,1,.2.6c-.15.31-15.37,31.07-14.64,44.17a.45.45,0,0,1-.42.47Z" style="fill:#79b0dd"/><ellipse cx="137.73" cy="176.56" rx="133.3" ry="5.36" style="fill:#9ac9ec"/><ellipse cx="207.93" cy="60.06" rx="23.29" ry="53.06" style="fill:#a8d3f1"/><path d="M207.93,173.42a.9.9,0,0,1-.9-.9V53.71a.9.9,0,1,1,1.79,0V172.52A.89.89,0,0,1,207.93,173.42Z" style="fill:#86bde6"/><path d="M207.93,90.31a.89.89,0,0,1-.64-1.52l14.06-14.06a.89.89,0,0,1,1.26,0,.9.9,0,0,1,0,1.27l-14.05,14A.89.89,0,0,1,207.93,90.31Z" style="fill:#86bde6"/><path d="M207.93,72.67a.9.9,0,0,1-.64-.27.89.89,0,0,1,0-1.26L214.43,64a.89.89,0,0,1,1.26,1.26l-7.13,7.13A.9.9,0,0,1,207.93,72.67Z" style="fill:#86bde6"/><path d="M207.93,83.79a.89.89,0,0,1-.64-.26L195.45,71.69a.9.9,0,0,1,0-1.27.89.89,0,0,1,1.26,0l11.85,11.85a.89.89,0,0,1-.63,1.52Z" style="fill:#86bde6"/><path d="M205,173.56s-.79-5.27-7.69-9.36c0,0,8.2,2.54,11.42,7.85,0,0,2.85-18.16,5-23.67l-.7,23.78s6.75-9.91,13.87-13.47c0,0-8.1,8.8-8.19,14.87Z" style="fill:#9ac9ec"/><line x1="62.8" y1="173.22" x2="62.8" y2="37.84" style="fill:none;stroke:#86bde6;stroke-linecap:round;stroke-miterlimit:10;stroke-width:2.68177px"/><polygon points="53.64 27.38 57.96 46.22 62.8 46.22 62.8 27.38 53.64 27.38" style="fill:#fff"/><polygon points="71.96 27.38 67.64 46.22 62.8 46.22 62.8 27.38 71.96 27.38" style="fill:#fff"/><path d="M70.68,28.4,66.82,45.2h-8L54.92,28.4H70.68m1.28-1Zm0,0H53.64L58,46.22h9.68L72,27.38Z" style="fill:#86bde6"/><polygon points="62.8 22.8 53.64 27.38 62.8 27.38 71.96 27.38 62.8 22.8" style="fill:#1579b9"/><rect x="62.3" y="27.45" width="1" height="18.5" style="fill:#86bde6"/><path d="M108.25,88.14l-.43-.11,2.1-9a1.26,1.26,0,0,1,1.24-1h2.91v.44h-2.91a.82.82,0,0,0-.8.64Z" style="fill:#a8d3f1"/><path d="M108.64,88.16l-.42-.15,4.41-11.73a1.36,1.36,0,0,1,1.27-.88h3.3v.45h-3.3a.92.92,0,0,0-.85.59Z" style="fill:#fff"/><path d="M115.15,75.85c-.6,0-1.08,1.07-1.08,2.4s.48,2.41,1.08,2.41Z" style="fill:#a8d3f1"/><path d="M120.61,75.76c0,2.09-.77,3.8-1.71,3.8s-1.7-1.71-1.7-3.8S118,72,118.9,72,120.61,73.66,120.61,75.76Z" style="fill:#fff"/><path d="M89.23,140.38a15.89,15.89,0,1,0,15.88,15.88A15.88,15.88,0,0,0,89.23,140.38Zm0,25.64A9.76,9.76,0,1,1,99,156.26,9.76,9.76,0,0,1,89.23,166Z" style="fill:#00081a"/><circle cx="89.23" cy="156.26" r="2.92" style="fill:#fff"/><path d="M178,156.26a2.92,2.92,0,1,1-2.91-2.91A2.91,2.91,0,0,1,178,156.26Z" style="fill:#fff"/><path d="M175.1,140.38A15.89,15.89,0,1,0,191,156.26,15.88,15.88,0,0,0,175.1,140.38Zm0,25.64a9.76,9.76,0,1,1,9.75-9.76A9.76,9.76,0,0,1,175.1,166Z" style="fill:#00081a"/><path d="M100.53,93.3a4.21,4.21,0,0,0,4.21,4.21V89.09A4.2,4.2,0,0,0,100.53,93.3Z" style="fill:#fff"/><path d="M117.8,93.61s0-1.37-1.83-1.47-3.58-1.21-3.86-2.38A4.9,4.9,0,0,1,112,89a1.41,1.41,0,0,0-1.43-1.31h-4.34a1.44,1.44,0,0,0-1.44,1.43v8.42a1.44,1.44,0,0,0,1.44,1.43h3.31s2,1.34-.39,4.58-12.79,17-15.59,21.79a25.69,25.69,0,0,0-3.12,10.06l2.23,9.28,14.3,8,4.36,4.08a3.1,3.1,0,0,0,2.12.84h47.49v-7.27h37.33s-2.35-14.52-18-23.8h-35s6,6.48,4.71,15.54S139.6,153.9,135.8,153.9H117.92c-4.8,0-10.72-9.5-11.28-19.33a37.91,37.91,0,0,1,6.93-24c2.59-3.6,4.58-7.14,4.8-9.93A33.65,33.65,0,0,0,117.8,93.61Z" style="fill:url(#linear-gradient)"/><path d="M200.58,146.75h-9.31a1.79,1.79,0,0,0-1.79,1.79h0a1.79,1.79,0,0,0,1.79,1.78h9.31a1.78,1.78,0,0,0,1.78-1.78h0A1.79,1.79,0,0,0,200.58,146.75Z" style="fill:#00081a"/><path d="M89.23,134.68a19.7,19.7,0,0,0-19.7,19.7h39.4A19.7,19.7,0,0,0,89.23,134.68Z" style="fill:url(#linear-gradient-2)"/><path d="M196.25,154.79H156.36s-5.24-7-1.78-15c4.58-10.56,18.12-8.72,25.83-4.25S193.8,148.2,196.25,154.79Z" style="fill:url(#linear-gradient-3)"/><path d="M144.64,127.45l-1,1.38a1,1,0,0,1-.84.43h0a1,1,0,0,1-1-1v-7.66a.41.41,0,0,1,.41-.42H164a14.46,14.46,0,0,0,8.54-2.51,1,1,0,0,1,1.57.29c.91,1.59,1.94,4.7-.67,8.42a.43.43,0,0,1-.35.17H146.44A2.22,2.22,0,0,0,144.64,127.45Z" style="fill:#00081a"/><path d="M186.76,149H161.39a.67.67,0,0,0-.67.67h0a.67.67,0,0,0,.67.67h25.37a.67.67,0,0,0,.67-.67h0A.67.67,0,0,0,186.76,149Z" style="fill:#e58e0e"/><path d="M179.75,145.24H161.39a.67.67,0,0,0-.67.67h0a.67.67,0,0,0,.67.67h18.36a.67.67,0,0,0,.67-.67h0A.67.67,0,0,0,179.75,145.24Z" style="fill:#e58e0e"/><path d="M173.4,141.5h-12a.67.67,0,0,0-.67.67h0a.67.67,0,0,0,.67.67h12a.67.67,0,0,0,.67-.67h0A.67.67,0,0,0,173.4,141.5Z" style="fill:#e58e0e"/><rect x="176.29" y="109.32" width="26.07" height="16.35" style="fill:url(#linear-gradient-4)"/><rect x="180.39" y="98.95" width="17.88" height="10.36" style="fill:url(#linear-gradient-5)"/><path d="M184.41,126.3h0a.23.23,0,0,1-.19-.26l4-27.12a.24.24,0,0,1,.26-.19.22.22,0,0,1,.18.26l-4,27.12A.22.22,0,0,1,184.41,126.3Z"/><path d="M194.81,126.3a.22.22,0,0,1-.22-.19l-4-27.12a.22.22,0,0,1,.18-.26.24.24,0,0,1,.26.19L195,126a.22.22,0,0,1-.19.26Z"/><path d="M106.08,118.61a28.85,28.85,0,0,0-4,9.86l-2.85.16a44,44,0,0,1,4.31-8.83Z" style="fill:#fff;fill-rule:evenodd"/><path d="M205.48,126.52H173.05a.45.45,0,1,1,0-.89h32.43a.45.45,0,1,1,0,.89Z"/><path d="M118.39,100.89c0,.26-.16.63-.21.9l-1.26.14c-1.26.09-3.86-3.27-3.86-4.27,0-.78,2.77-3.31,4.64-4.47A29.69,29.69,0,0,1,118.39,100.89Z" style="fill:#fb8f08"/><path d="M122.46,99.31a1.75,1.75,0,0,0-.6-.55h0c-.22-.11-2.34-1.33-2.34-1.33h0a1.85,1.85,0,0,0-.81-.18,1.9,1.9,0,0,0-1.9,1.9,1.82,1.82,0,0,0,.25.93,2,2,0,0,0,.55.62h0l.27.16.71.4,1.23.69h0l.22.13a1.93,1.93,0,0,0,.82.19,1.91,1.91,0,0,0,1.89-1.64,2.46,2.46,0,0,0,0-.26A1.88,1.88,0,0,0,122.46,99.31Z" style="fill:#00081a"/><path d="M128.85,146.36h-4.11a6.11,6.11,0,0,1-3.5,2.27,37.52,37.52,0,0,1-4.85.08,2.18,2.18,0,0,0-2.23,2.18h0a2.18,2.18,0,0,0,2.18,2.17h12.51a1,1,0,0,0,1-1Z" style="fill:#00081a"/><path d="M129.18,147.08h-4.1a6.16,6.16,0,0,1-3.51,2.28,41.33,41.33,0,0,1-4.84.08,2.18,2.18,0,0,0-2.23,2.17h0a2.18,2.18,0,0,0,2.17,2.18h12.51a1,1,0,0,0,1-1Z" style="fill:#00081a"/><path d="M125.46,146.75a1.84,1.84,0,0,0,3.62,0Z" style="fill:#fcb3bb"/><path d="M160.36,110.53H128.28c-8.21,0-8.21,8.56-8.21,12.17S123,146.58,123,146.58h6.22l1.92-23.88h23.66C159.69,122.7,162.74,117.17,160.36,110.53Z" style="fill:#37255c"/><path d="M160.94,111.77H129.28c-8,0-8,8.31-8,11.81s2.83,23.17,2.83,23.17h6L132,123.58H155C159.75,123.58,163.25,118.22,160.94,111.77Z" style="fill:url(#linear-gradient-6)"/><path d="M150.82,69a18.27,18.27,0,0,0,3.44-6.07s-6.26-8.74-16.8-4Z" style="fill:#442f6e"/><path d="M137.44,58.88s-.74,5.51,1.28,9.79,2.52,4.38,6.16,3.66l.61,4.71,6.91-2.44s-2.64-7.38-1.6-8.7c.89-1.11,1.2-3.07-.08-3.75-2-1.07-3.51,1.29-3.6,2.28l-1-3.71S139,58.3,137.44,58.88Z" style="fill:url(#linear-gradient-7)"/><path d="M139.54,59.44h-.08L128,57.15a.37.37,0,0,1-.3-.44.38.38,0,0,1,.45-.3l11.45,2.28a.38.38,0,0,1,.3.44A.39.39,0,0,1,139.54,59.44Z" style="fill:#cc0a31"/><path d="M137.48,59.07l16.86,3.79s1.76-8.1-5.64-10.19S137.68,55.31,137.48,59.07Z" style="fill:url(#linear-gradient-8)"/><path d="M152.6,91.89s-.19.51-.5,1.29l-.33.8c-.05.11-.09.22-.14.32a3.05,3.05,0,0,0-.13.32c-.9,2-2.19,4.57-3.22,5.09-.58.29-3.44.33-7,.25-7.3-.17-17.57-.84-17.57-.84l-1.24.19a1.75,1.75,0,0,0-.6-.55h0c-.22-.11-2.34-1.33-2.34-1.33h0a1.85,1.85,0,0,0-.81-.18,1.9,1.9,0,0,0-1.9,1.9,1.82,1.82,0,0,0,.25.93H117c-.89,0-2.52-1.79-3.16-3a17.47,17.47,0,0,1,4-3.45,1.55,1.55,0,0,0-.53-1,4.47,4.47,0,0,1,1.66-.85c1.12-.08,6,3.21,6,3.21l16-.86,3.54-.19.11-.35.11-.32.1-.32.72-2.14Z" style="fill:#fa8b98"/><path d="M142.59,110.88s-1.42-21.62.59-29.16c2-7.35,8.38-10.28,11.95-5.59s2.16,12.26,2.46,18.44c.56,11.5,3.24,15.08,3.35,17.2H142.59Z" style="fill:url(#linear-gradient-9)"/><polygon points="156.18 83.59 153.57 95.17 143.14 93.58 145.97 82.1 156.18 83.59" style="fill:#bc2060;fill-rule:evenodd"/><path d="M152.6,93.26s-.11.31-.31.8a2.69,2.69,0,0,1-.13.32c0,.11-.08.21-.12.32-.85,2.08-2.49,5.75-3.76,6.38-.58.29-3.37.33-6.88.26h0c-7.3-.17-17.69-.85-17.69-.85l-.93.15a2.46,2.46,0,0,0,0-.26,1.88,1.88,0,0,0-.33-1.07,1.75,1.75,0,0,0-.6-.55h0c-.22-.11-2.34-1.33-2.34-1.33h0a1.85,1.85,0,0,0-.81-.18,1.9,1.9,0,0,0-1.9,1.9,1.82,1.82,0,0,0,.25.93,2,2,0,0,0,.55.62h0l.27.16.71.4-.32,0c-.57.08-1,.14-1.28.16-1.12.07-3.43-2.91-3.43-3.8a1.26,1.26,0,0,1,.27-.59,17.47,17.47,0,0,1,4-3.45,3.1,3.1,0,0,1,1.13-.51c1.12-.07,6,3.2,6,3.2l16-.85h0l3.47-.19.55-1.65.11-.32.1-.32.28-.84,6.65,1Z" style="fill:url(#linear-gradient-10)"/><polygon points="145.97 81.72 143.85 93.11 153.12 94.53 156.18 83.2 145.97 81.72" style="fill:url(#linear-gradient-11)"/><polygon points="143.19 78.87 143.19 78.88 143.18 78.87 143.19 78.87" style="fill:#fa8b98"/></g></g></svg>