<svg xmlns="http://www.w3.org/2000/svg" xmlns:xlink="http://www.w3.org/1999/xlink" width="259.6" height="195.72" viewBox="0 0 259.6 195.72"><defs><clipPath id="clip-path"><path d="M173.18,172.82c-61.83-16.49-95.9,30.89-145.6,7.49C-16,159.79,1.23,114.43,17.41,94.5S.81,30.78,27.58,10.29s67.84,19.49,118.67,1.35S229.48-2.61,238.2,17.5s-13.83,50.24,8.89,73.64C276.4,121.32,255.14,194.67,173.18,172.82Z" style="fill:none"/></clipPath><clipPath id="clip-path-2"><path d="M173.31,172.82c-61.83-16.49-95.89,30.89-145.6,7.49C-15.88,159.79,1.36,114.43,17.55,94.5S1,30.78,27.71,10.29s67.85,19.49,118.67,1.35,83.24-14.25,92,5.86-13.83,50.24,8.9,73.64C276.54,121.32,255.27,194.67,173.31,172.82Z" style="fill:none"/></clipPath><linearGradient id="linear-gradient" x1="70.14" y1="61.51" x2="117.36" y2="108.73" gradientUnits="userSpaceOnUse"><stop offset="0" stop-color="#fdbe42"/><stop offset="1" stop-color="#f7931e"/></linearGradient><linearGradient id="linear-gradient-2" x1="152.45" y1="51.6" x2="201.98" y2="111.8" xlink:href="#linear-gradient"/><linearGradient id="linear-gradient-3" x1="181.96" y1="122.88" x2="212.28" y2="122.88" gradientUnits="userSpaceOnUse"><stop offset="0" stop-color="#e09e4f"/><stop offset="1" stop-color="#cd8b3a"/></linearGradient><linearGradient id="linear-gradient-4" x1="181.96" y1="105.67" x2="207.86" y2="105.67" gradientUnits="userSpaceOnUse"><stop offset="0" stop-color="#f4b073"/><stop offset="1" stop-color="#e2995c"/></linearGradient><linearGradient id="linear-gradient-5" x1="212.28" y1="122.88" x2="228.82" y2="122.88" xlink:href="#linear-gradient-4"/><linearGradient id="linear-gradient-6" x1="141.21" y1="152.5" x2="151.89" y2="152.5" gradientUnits="userSpaceOnUse"><stop offset="0" stop-color="#473071"/><stop offset="1" stop-color="#382a5f"/></linearGradient><linearGradient id="linear-gradient-7" x1="151.89" y1="152.5" x2="162.57" y2="152.5" xlink:href="#linear-gradient-6"/><linearGradient id="linear-gradient-8" x1="135.01" y1="94.43" x2="168.68" y2="94.43" gradientUnits="userSpaceOnUse"><stop offset="0" stop-color="#ff5b96"/><stop offset="1" stop-color="#da3362"/></linearGradient><linearGradient id="linear-gradient-9" x1="134.96" y1="99.73" x2="134.96" y2="120.01" gradientUnits="userSpaceOnUse"><stop offset="0" stop-color="#fdd7db"/><stop offset="1" stop-color="#fbadaf"/></linearGradient><linearGradient id="linear-gradient-10" x1="139.51" y1="126.46" x2="164.28" y2="126.46" xlink:href="#linear-gradient-8"/><linearGradient id="linear-gradient-11" x1="168.82" y1="99.73" x2="168.82" y2="120.01" xlink:href="#linear-gradient-9"/><linearGradient id="linear-gradient-12" x1="133.84" y1="113.06" x2="169.94" y2="113.06" xlink:href="#linear-gradient-3"/><linearGradient id="linear-gradient-13" x1="132.75" y1="100.65" x2="171.03" y2="100.65" xlink:href="#linear-gradient-4"/><linearGradient id="linear-gradient-14" x1="148.6" y1="87.7" x2="155.01" y2="87.7" xlink:href="#linear-gradient-9"/><linearGradient id="linear-gradient-15" x1="147.07" y1="80.59" x2="156.54" y2="80.59" xlink:href="#linear-gradient-9"/><linearGradient id="linear-gradient-16" x1="144.92" y1="81.37" x2="147.07" y2="81.37" xlink:href="#linear-gradient-9"/><linearGradient id="linear-gradient-17" x1="158.87" y1="81.37" x2="156.58" y2="81.37" xlink:href="#linear-gradient-9"/><linearGradient id="linear-gradient-18" x1="145.09" y1="74.52" x2="158.58" y2="74.52" xlink:href="#linear-gradient-8"/></defs><g id="Capa_2" data-name="Capa 2"><g id="OBJECTS"><path d="M173.18,172.82c-61.83-16.49-95.9,30.89-145.6,7.49C-16,159.79,1.23,114.43,17.41,94.5S.81,30.78,27.58,10.29s67.84,19.49,118.67,1.35S229.48-2.61,238.2,17.5s-13.83,50.24,8.89,73.64C276.4,121.32,255.14,194.67,173.18,172.82Z" style="fill:#d2eaf9"/><g style="clip-path:url(#clip-path)"><rect x="0.69" y="124.39" width="258.9" height="7.03" style="fill:#9ac9ec"/></g><path d="M87.31,25.1s-39.72,76,0,76S87.31,25.1,87.31,25.1Z" style="fill:#a8d3f1"/><path d="M41.86,45s-34.86,66.67,0,66.67S41.86,45,41.86,45Z" style="fill:#a8d3f1"/><path d="M41.86,132a.67.67,0,0,1-.67-.67V76.68a.67.67,0,1,1,1.34,0V131.3A.67.67,0,0,1,41.86,132Z" style="fill:#86bde6"/><path d="M42.16,104.48a.66.66,0,0,1-.47-.19.68.68,0,0,1,0-1l5.44-5.44a.66.66,0,0,1,.94,0,.68.68,0,0,1,0,.95l-5.44,5.44A.66.66,0,0,1,42.16,104.48Z" style="fill:#86bde6"/><path d="M41.63,95.23a.67.67,0,0,1-.47-.2l-6.31-6.31a.66.66,0,0,1,.94-.94l6.31,6.31a.67.67,0,0,1-.47,1.14Z" style="fill:#86bde6"/><path d="M241.05,66.6s-23.46,44.87,0,44.87S241.05,66.6,241.05,66.6Z" style="fill:#a8d3f1"/><path d="M241.05,125.11a.45.45,0,0,1-.45-.45V87.89a.45.45,0,0,1,.9,0v36.77A.45.45,0,0,1,241.05,125.11Z" style="fill:#86bde6"/><path d="M241.26,106.6a.45.45,0,0,1-.32-.76l3.66-3.66a.45.45,0,0,1,.63.63l-3.66,3.66A.42.42,0,0,1,241.26,106.6Z" style="fill:#86bde6"/><path d="M240.9,100.38a.48.48,0,0,1-.32-.13L236.33,96a.45.45,0,0,1,.64-.64l4.24,4.25a.45.45,0,0,1,0,.64A.46.46,0,0,1,240.9,100.38Z" style="fill:#86bde6"/><circle cx="155.27" cy="29.94" r="2.51" style="fill:#fff"/><path d="M117.53,148.9a2.51,2.51,0,1,1-2.51-2.51A2.51,2.51,0,0,1,117.53,148.9Z" style="fill:#fff"/><circle cx="228.58" cy="153.92" r="2.51" style="fill:#fff"/><path d="M112,37.57a2.51,2.51,0,1,1-2.51-2.51A2.51,2.51,0,0,1,112,37.57Z" style="fill:#a8d3f1"/><circle cx="61.44" cy="63.08" r="2.51" style="fill:#a8d3f1"/><circle cx="247.87" cy="63.08" r="2.51" style="fill:#a8d3f1"/><path d="M23.45,151.41a2.51,2.51,0,1,1-2.51-2.51A2.51,2.51,0,0,1,23.45,151.41Z" style="fill:#a8d3f1"/><circle cx="50.31" cy="25.1" r="4.31" style="fill:#fff"/><path d="M212.17,21.32A4.31,4.31,0,1,1,207.86,17,4.31,4.31,0,0,1,212.17,21.32Z" style="fill:#a8d3f1"/><circle cx="4.31" cy="79.82" r="4.31" style="fill:#a8d3f1"/><path d="M195.12,148.9a4.31,4.31,0,1,1-4.31-4.31A4.31,4.31,0,0,1,195.12,148.9Z" style="fill:#a8d3f1"/><g style="clip-path:url(#clip-path-2)"><path d="M36,190.69A161.7,161.7,0,0,1,51,150.49c5.56-10.2,18.3-28.33,26.33-22.18S64.21,152,54.17,168.25c-12.6,20.4-14.58,25.33-14.58,25.33Z" style="fill:#79b0dd"/><path d="M39.32,192.6a132.7,132.7,0,0,1,21.26-27.95c6.75-6.68,21-17.88,25.84-11.17s-15.86,15.46-27.55,25.83c-14.66,13-17.37,16.41-17.37,16.41Z" style="fill:#fff"/><path d="M32.63,193.26a132.44,132.44,0,0,1,.67-35.1c1.51-9.37,6.4-26.83,14.27-24.27s-3.68,21.84-7,37.11c-4.16,19.16-4.35,23.5-4.35,23.5Z" style="fill:#a8d3f1"/><path d="M38.52,191.43C51,156.11,73.13,133.64,73.13,133.64" style="fill:none;stroke:#a8d3f1;stroke-linecap:round;stroke-miterlimit:10;stroke-width:0.9026139999999999px"/><path d="M34.72,187.28s0-25.35,8.92-46.42" style="fill:none;stroke:#79b0dd;stroke-linecap:round;stroke-miterlimit:10;stroke-width:0.9026139999999999px"/><path d="M41,192s16.51-22.46,38-33.87" style="fill:none;stroke:#9ac9ec;stroke-linecap:round;stroke-miterlimit:10;stroke-width:0.9026139999999999px"/></g><path d="M117,57.09H85.7A4.38,4.38,0,0,0,82.06,59L68.13,79.62a4.4,4.4,0,0,0-.75,2.46v28A1.63,1.63,0,0,0,69,111.71h48a1.63,1.63,0,0,0,1.63-1.63V58.72A1.63,1.63,0,0,0,117,57.09Z" style="fill:url(#linear-gradient)"/><path d="M75.62,79l9.8-15.44a.94.94,0,0,1,.79-.44h25.86A.94.94,0,0,1,113,64V79.46a.94.94,0,0,1-.94.94H76.41A.93.93,0,0,1,75.62,79Z" style="fill:#21334f;stroke:#465e7a;stroke-miterlimit:10;stroke-width:1.9984300000000002px"/><path d="M126.55,109.16v2.55H114.07a13.26,13.26,0,0,0-19.53,0H64.05v4.6a4.4,4.4,0,0,0,4.39,4.39H225.25V109.16Z" style="fill:#21334f"/><path d="M67.38,100.22h5.17A1.49,1.49,0,0,1,74,101.71v3.68a1.49,1.49,0,0,1-1.49,1.49H67.38a0,0,0,0,1,0,0v-6.66A0,0,0,0,1,67.38,100.22Z" style="fill:#fff"/><path d="M106.77,89H99.7a.74.74,0,0,1-.74-.73h0a.74.74,0,0,1,.74-.74h7.07a.74.74,0,0,1,.74.74h0A.74.74,0,0,1,106.77,89Z" style="fill:#e0925c"/><circle cx="104.31" cy="120.7" r="10.72" style="fill:#414d5b"/><circle cx="104.31" cy="120.7" r="5.2" style="fill:#fff"/><path d="M123,46.12H223.25a0,0,0,0,1,0,0v62.95a0,0,0,0,1,0,0H125.68a2.68,2.68,0,0,1-2.68-2.68V46.12A0,0,0,0,1,123,46.12Z" style="fill:url(#linear-gradient-2)"/><rect x="120.11" y="43.43" width="103.14" height="3.21" rx="0.78" style="fill:#e58e0e"/><rect x="129.44" y="57.09" width="87.38" height="3.21" rx="0.72" style="fill:#e58e0e"/><rect x="129.44" y="70.74" width="87.38" height="3.21" rx="0.72" style="fill:#e58e0e"/><rect x="129.44" y="84.4" width="87.38" height="3.21" rx="0.72" style="fill:#e58e0e"/><rect x="129.44" y="98.05" width="87.38" height="3.21" rx="0.72" style="fill:#e58e0e"/><path d="M197.12,114.34H182.38a.4.4,0,0,0-.42.38V131a.4.4,0,0,0,.42.38h29.48a.4.4,0,0,0,.42-.38V114.72a.4.4,0,0,0-.42-.38Z" style="fill:url(#linear-gradient-3)"/><path d="M194.91,97.13H182.32a.37.37,0,0,0-.36.38v16.32a.37.37,0,0,0,.36.38H207.5a.37.37,0,0,0,.36-.38V97.51a.37.37,0,0,0-.36-.38Z" style="fill:url(#linear-gradient-4)"/><path d="M220.55,114.34h-8c-.13,0-.24.17-.24.38V131c0,.21.11.38.24.38h16.07c.13,0,.23-.17.23-.38V114.72c0-.21-.1-.38-.23-.38Z" style="fill:url(#linear-gradient-5)"/><polygon points="147.12 175.32 151.15 175.32 151.89 129.68 141.21 129.68 147.12 175.32" style="fill:url(#linear-gradient-6)"/><polygon points="151.89 129.68 152.64 175.32 156.66 175.32 162.57 129.68 151.89 129.68" style="fill:url(#linear-gradient-7)"/><path d="M147.18,175.32h3.89s.49,3,.21,3.69-.78,1.31-1,1.31-.57,0-1.15,1.07-3.07,4.13-5.77,2.62,1.51-4.47,2.37-5.74A16.1,16.1,0,0,0,147.18,175.32Z" style="fill:#00081a"/><path d="M149.13,176.93a1.61,1.61,0,0,0,1.61-1.61h-3.22A1.61,1.61,0,0,0,149.13,176.93Z" style="fill:#fcb2ba"/><path d="M156.58,175.32h-3.89s-.49,3-.21,3.69.78,1.31,1,1.31.57,0,1.14,1.07,3.08,4.13,5.78,2.62-1.52-4.47-2.38-5.74A15.73,15.73,0,0,1,156.58,175.32Z" style="fill:#00081a"/><path d="M154.63,176.93a1.61,1.61,0,0,1-1.61-1.61h3.21A1.61,1.61,0,0,1,154.63,176.93Z" style="fill:#fcb2ba"/><path d="M160.42,90c-3-.88-5.5-1.55-5.5-1.55h-6.23s-2.43.67-5.42,1.55c-4.22,1.25-6.87,3-8.26,10.41h33.67C167.29,93,164.64,91.25,160.42,90Z" style="fill:url(#linear-gradient-8)"/><path d="M134.17,104l-1.94,7.93a2.71,2.71,0,0,0,.12,2l2.7,5.79h2.77V105.88Z" style="fill:url(#linear-gradient-9)"/><polygon points="151.89 121.5 139.51 122.11 140.24 131.42 151.89 131.42 163.45 131.42 164.28 122.11 151.89 121.5" style="fill:url(#linear-gradient-10)"/><path d="M169.61,104l1.94,7.93a2.71,2.71,0,0,1-.12,2l-2.7,5.79H166V105.88Z" style="fill:url(#linear-gradient-11)"/><path d="M151.89,101.73H134.35a.5.5,0,0,0-.51.5v21.65a.51.51,0,0,0,.51.51h35.08a.51.51,0,0,0,.51-.51V102.23a.5.5,0,0,0-.51-.5Z" style="fill:url(#linear-gradient-12)"/><path d="M151.89,99.13H133.27a.52.52,0,0,0-.52.52v2a.52.52,0,0,0,.52.52h37.25a.51.51,0,0,0,.51-.52v-2a.51.51,0,0,0-.51-.52Z" style="fill:url(#linear-gradient-13)"/><rect x="137.06" y="103.99" width="9.7" height="3.02" rx="0.34" style="fill:#fff"/><rect x="137.91" y="104.48" width="0.5" height="2.05" style="fill:#302720"/><rect x="138.98" y="104.48" width="0.5" height="2.05" style="fill:#302720"/><rect x="140.05" y="104.48" width="0.5" height="2.05" style="fill:#302720"/><rect x="141.12" y="104.48" width="0.5" height="2.05" style="fill:#302720"/><rect x="142.19" y="104.48" width="0.5" height="2.05" style="fill:#302720"/><rect x="143.27" y="104.48" width="0.5" height="2.05" style="fill:#302720"/><rect x="144.34" y="104.48" width="0.5" height="2.05" style="fill:#302720"/><rect x="145.41" y="104.48" width="0.5" height="2.05" style="fill:#302720"/><path d="M151.8,90.9h0a3.2,3.2,0,0,1-3.2-3.2V84.49H155V87.7A3.2,3.2,0,0,1,151.8,90.9Z" style="fill:url(#linear-gradient-14)"/><path d="M145.86,81.77a5.35,5.35,0,0,0,1.52,2.72c1.28,1.22,0-2,0-2l-.48-.88Z" style="fill:#46345e"/><path d="M146.58,76c-1.42,0-2.12,1.85,0,6.33l1.56,1.25L151,77.26Z" style="fill:#46345e"/><path d="M157.74,81.85a5.29,5.29,0,0,1-1.5,2.68c-1.26,1.21,0-2,0-2l.47-.86Z" style="fill:#46345e"/><path d="M157.1,76c1.42,0,2.12,1.85,0,6.33l-1.56,1.25-2.87-6.36Z" style="fill:#46345e"/><path d="M155,85.4v1.82a5.89,5.89,0,0,1,0,.84l-.14,0c-3.7.6-5.24-.59-6.25-1.94l1-.93Z" style="fill:#fa7782"/><path d="M147.07,73.78h9.48a0,0,0,0,1,0,0V82.7a4.69,4.69,0,0,1-4.69,4.69h-.11a4.69,4.69,0,0,1-4.69-4.69V73.78A0,0,0,0,1,147.07,73.78Z" style="fill:url(#linear-gradient-15)"/><path d="M147.07,81.17c-.53-.77-.8-1.35-1.57-1.1s-.69,1.74-.18,2.27a1.68,1.68,0,0,0,1.75.24" style="fill:url(#linear-gradient-16)"/><path d="M156.54,81.17c.53-.77.8-1.35,1.56-1.1s.7,1.74.19,2.27a1.68,1.68,0,0,1-1.75.24" style="fill:url(#linear-gradient-17)"/><path d="M151.84,74h0c-5.34,0-6.37,5.45-6.37,5.45,2-3.7,6.32-3.42,6.34-3.42h0s4.35-.32,6.36,3.42C158.2,79.48,157.18,74,151.84,74Z" style="fill:#cc0a31"/><path d="M158.48,74.33c-.31-2.25-3.73-4.77-6.64-4.77h0c-2.91,0-6.33,2.52-6.64,4.77a16.81,16.81,0,0,0,.27,5.15s1-5.45,6.37-5.45,6.36,5.45,6.36,5.45A16.65,16.65,0,0,0,158.48,74.33Z" style="fill:url(#linear-gradient-18)"/></g></g></svg>