<?xml version="1.0" encoding="utf-8"?>
<!-- Generator: Adobe Illustrator 24.2.3, SVG Export Plug-In . SVG Version: 6.00 Build 0)  -->
<svg version="1.1" id="Capa_1" xmlns="http://www.w3.org/2000/svg" xmlns:xlink="http://www.w3.org/1999/xlink" x="0px" y="0px"
	 viewBox="0 0 24 24" style="enable-background:new 0 0 24 24;" xml:space="preserve">
<style type="text/css">
	.st0{filter:url(#Adobe_OpacityMaskFilter);}
	.st1{fill-rule:evenodd;clip-rule:evenodd;fill:#FFFFFF;}
	.st2{mask:url(#b_1_);fill-rule:evenodd;clip-rule:evenodd;fill:#C69C6D;}
</style>
<g transform="translate(4 4)">
	<defs>
		<filter id="Adobe_OpacityMaskFilter" filterUnits="userSpaceOnUse" x="0" y="0" width="16.8" height="15.9">
			<feColorMatrix  type="matrix" values="1 0 0 0 0  0 1 0 0 0  0 0 1 0 0  0 0 0 1 0"/>
		</filter>
	</defs>
	<mask maskUnits="userSpaceOnUse" x="0" y="0" width="16.8" height="15.9" id="b_1_">
		<g class="st0">
			<path id="a_1_" class="st1" d="M0,0h16.8v15.9H0V0z"/>
		</g>
	</mask>
	<path class="st2" d="M11.2,8.7c-0.9,0-1.6,0.7-1.6,1.6l0,0v5.6h-4c0,0,0-9.6,0-10.4h4v1.2c0,0,1.2-1.2,3.2-1.2c2.4,0,4,1.7,4,5v5.3
		h-4v-5.6C12.8,9.4,12.1,8.7,11.2,8.7C11.2,8.7,11.2,8.7,11.2,8.7z M2,3.9L2,3.9c-1.2,0-2-0.9-2-2C0,0.9,0.8,0,2,0s2,0.9,2,2
		C4.1,3,3.3,3.9,2,3.9z M0,15.9h4V5.5H0C0,5.5,0,15.9,0,15.9z"/>
</g>
</svg>
