<svg xmlns="http://www.w3.org/2000/svg" xmlns:xlink="http://www.w3.org/1999/xlink" width="393.02" height="331.89" viewBox="0 0 393.02 331.89"><defs><linearGradient id="linear-gradient" x1="203.14" y1="113.82" x2="201.18" y2="100.45" gradientUnits="userSpaceOnUse"><stop offset="0" stop-color="#359de6"/><stop offset="1" stop-color="#49b8ef"/></linearGradient><linearGradient id="linear-gradient-2" x1="263.23" y1="180.42" x2="276.87" y2="101.01" xlink:href="#linear-gradient"/><linearGradient id="linear-gradient-3" x1="91.06" y1="184.91" x2="86.78" y2="91.15" gradientUnits="userSpaceOnUse"><stop offset="0" stop-color="#ca2a73"/><stop offset="1" stop-color="#dd4368"/></linearGradient><linearGradient id="linear-gradient-4" x1="55.77" y1="186.88" x2="51.47" y2="92.66" xlink:href="#linear-gradient-3"/><linearGradient id="linear-gradient-5" x1="172.43" y1="162.65" x2="157.81" y2="85.64" gradientUnits="userSpaceOnUse"><stop offset="0" stop-color="#f79239"/><stop offset="1" stop-color="#f7c759"/></linearGradient><linearGradient id="linear-gradient-6" x1="142.47" y1="81.5" x2="179.6" y2="81.5" gradientUnits="userSpaceOnUse"><stop offset="0" stop-color="#3f2323"/><stop offset="1" stop-color="#5e3434"/></linearGradient><linearGradient id="linear-gradient-7" x1="65.64" y1="98.84" x2="64.39" y2="71.03" gradientUnits="userSpaceOnUse"><stop offset="0" stop-color="#1b3151"/><stop offset="1" stop-color="#23406d"/></linearGradient><linearGradient id="linear-gradient-8" x1="259.67" y1="94.35" x2="240.56" y2="60.38" gradientUnits="userSpaceOnUse"><stop offset="0" stop-color="#382e2c"/><stop offset="1" stop-color="#534143"/></linearGradient></defs><g style="isolation:isolate"><g id="Capa_2" data-name="Capa 2"><g id="OBJECTS"><path d="M266.21,282.18c-.21.09-.42.16-.62.23-6.27,2.31-13.08,2.22-19.17,1-8.17-1.65-15-5.38-17.55-8.2-1.2-1.34-1.41-2.47-.34-3.09,5.1-2.94,39.9-1,39.9-1,1.11.05,2.18.13,3.18.25C279.52,272.32,282.83,275.6,266.21,282.18Z" style="fill:#9ac9ec"/><path d="M371,298.1c-2.65,3.45-32.5,3.94-44.63,4.42S310.87,308.76,304,312s-50,5.32-92.37,6.25c-35.82.77-22.29,5-6.79,6s21.4,5.63,7.11,6.54c-13.34.85-67.19,1.68-86.42.27s-19-13.85-35.27-14.74-61-3.23-80-6.66c-21.65-3.89-7.94-8,29.05-12.36,10-1.19,17.25-2.38,21.87-3.42,7.86-1.78,8.19-3.2,2-3.68-8.61-.68-12.94-3.79-1.75-5.65q2.46-.4,6-.73c7.82-.68,22-1.24,35.66-1.64l12.07-.34c6.41-.17,12.16-.28,16.44-.37l7.55-.15c17.18-.59,11.23-5.58,37.26-5.94,9.64-.12,18.08-.29,25.44-.12,8.94.21,16.3.93,22.27,2.82a30.72,30.72,0,0,1,6.6,2.93c5.75,3.47,18.81,5,33.15,5.74,13,.71,27,.83,37.62,1.31C332,289.49,375.51,292.27,371,298.1Z" style="fill:#9ac9ec"/><path d="M219.15,294.75c0-4.3-14.87-7.78-33.21-7.78s-33.22,3.48-33.22,7.78a2.11,2.11,0,0,0,.11.6c-16.62.56-29.31,3.56-29.31,7.19,0,4,15.62,7.29,34.89,7.29s34.9-3.27,34.9-7.29c0-.06,0-.13,0-.19C208.09,301.56,219.15,298.46,219.15,294.75Z" style="fill:#79b0dd;opacity:0.74;mix-blend-mode:multiply"/><path d="M114.6,299.35c0,3.85-11.92,7-26.63,7s-26.62-3.13-26.62-7c0-1.72,2.38-3.3,6.31-4.52-2.3-.24-4.45-.54-6.42-.88,7.86-1.78,8.19-3.2,2-3.68-8.61-.68-12.94-3.79-1.75-5.65q2.46-.4,6-.73c7.82-.68,22-1.24,35.66-1.64,7.26,1.38,11.88,3.44,11.88,5.76s-4.43,4.3-11.44,5.68C110.25,295,114.6,297,114.6,299.35Z" style="fill:#79b0dd;opacity:0.74;mix-blend-mode:multiply"/><ellipse cx="256.98" cy="298.41" rx="28.45" ry="6.05" style="fill:#79b0dd;opacity:0.74;mix-blend-mode:multiply"/><path d="M264.07,278.32c0,2.64-7.73,4.81-17.65,5.08-8.17-1.65-15-5.38-17.55-8.2,3.59-1.21,9.22-2,15.54-2C255.27,273.21,264.07,275.5,264.07,278.32Z" style="fill:#79b0dd;opacity:0.74;mix-blend-mode:multiply"/><path d="M100.12,325.11c-3.73-2.8-10.34-2.86-22.46-3.39S44,324.57,53.6,327.42C62.86,330.17,113.16,334.87,100.12,325.11Z" style="fill:#9ac9ec"/><path d="M48.21,319.55c.64.08-.27,4.35-6.51,4.76S26.55,316.88,48.21,319.55Z" style="fill:#9ac9ec"/><path d="M241.43,326.39c-3.94-.73-9.45-1.79-12.48,1.78s11.05,3.09,15.51,2.7S247,327.4,241.43,326.39Z" style="fill:#9ac9ec"/><path d="M319.06,297.69s1.34-12.93-3.48-21.22c0,0,4.46,3.12,6.24,18.63,0,0-.53-19.69,4.82-23.26,0,0-3.3,1.6-2.68,25.85Z" style="fill:#79b0dd"/><path d="M344.28,294.3s-.93-23.53,7.09-24.47c0,0-6.82,2-4.86,24.47Z" style="fill:#79b0dd"/><path d="M28.06,304.82s1.58-18.88-2.14-22.57c0,0,4.06.82,4.28,18.11,0,0,.85-16.42,5.93-17.49,0,0-4.82,4.05-3.75,21.95Z" style="fill:#79b0dd"/><path d="M115.94,319.17s.27-8.16-2.72-9.69c0,0,2.9,0,4,6.34,0,0-.44-12.61,2.32-15.41,0,0-1.74,1.71-.76,16.14l.22,2.62Z" style="fill:#79b0dd"/><path d="M122.36,319.17s.33-12.38,3-12.84c0,0-2.3.88-1.52,12.84Z" style="fill:#79b0dd"/><path d="M356,143.28c0,2.3,0,4.55-.09,6.73-.95,25.23-13.3,48.51-35.78,56.76-.67.25-1.35.48-2,.7a54.78,54.78,0,0,1-17.72,2.46h0c-.87,0-1.75-.06-2.64-.11A80.59,80.59,0,0,1,278.12,206,172.64,172.64,0,0,1,258,198c-1.29-.59-2.52-1.17-3.73-1.7,0,0,0,0,0,0-15.39-6.9-24.94-9.09-57.48,9.6l-2.23,1.31h0c-5.51,3.22-11.65,7-18.56,11.46-2.24,1.44-4.52,2.77-6.82,4-.71.37-1.42.74-2.14,1.09a85.94,85.94,0,0,1-15.65,5.87c-.7.18-1.42.37-2.14.54a87.82,87.82,0,0,1-23.69,2.31c-.72,0-1.44-.06-2.17-.1a103.79,103.79,0,0,1-23.1-4.07l-2.45-.75C55.94,214.24,19,176.32,7.61,136.55c0,0,0,0,0,0-.55-1.89-1-3.78-1.45-5.69,0,0,0,0,0,0-.14-.58-.26-1.17-.38-1.76C-1.17,94.71,3.51,72.14,16.3,58a40.08,40.08,0,0,1,3.59-3.55,0,0,0,0,0,0,0C32.13,43.51,50.15,38.61,71.7,37.56c42.71-2.06,93.52,34.5,120,29.31h0A20.93,20.93,0,0,0,195,66a17.84,17.84,0,0,0,6.48-4.1c1.33-1.34,2.7-2.75,4.09-4.23v0c.62-.65,1.23-1.29,1.84-2C217.46,44.8,229,31.11,242.46,21.87c.55-.36,1.09-.74,1.65-1.09,8.26-5.39,17.2-9,26.91-9.26.73,0,1.47,0,2.2,0,9.47.25,19.65,3.77,30.6,12a102.53,102.53,0,0,1,8.7,7.34c.63.59,1.25,1.19,1.87,1.8,14.84,14.7,25.09,33.44,31.7,52.75.28.83.56,1.64.81,2.46a182.61,182.61,0,0,1,6.61,27.25c.15.87.28,1.74.41,2.59a181.41,181.41,0,0,1,2,23.34C356,141.81,356,142.55,356,143.28Z" style="fill:#d2eaf9"/><path d="M190.83,51a13.12,13.12,0,0,1-5.91.26c-.8-.09-1.64-.22-2.54-.39-1.42-.26-2.95-.6-4.55-1-.7-.18-1.42-.39-2.15-.61-14.6-4.33-33-14.27-29.08-22.83C149.09,20.93,162,16,176.2,13.1l2.14-.42a135.74,135.74,0,0,1,17.43-2.17l2.23-.1c10-.33,17.86,1,19.54,4.56C222.54,25.67,212.25,42.43,190.83,51Z" style="fill:#d2eaf9"/><path d="M392.73,38.91a2.85,2.85,0,0,0-1.06-3.66,9.34,9.34,0,0,0-9.49-.54,15.6,15.6,0,0,1-12.18.88s8.15,9.9,14.62,9.71C388.94,45.18,391.51,41.4,392.73,38.91Z" style="fill:#a8d3f1"/><path d="M198.66,1.71A2.84,2.84,0,0,0,195.18.14,9.31,9.31,0,0,0,188.62,7a15.6,15.6,0,0,1-7.25,9.83s12.82.23,16.88-4.8C201,8.66,199.76,4.25,198.66,1.71Z" style="fill:#a8d3f1"/><path d="M133,256.68a2.84,2.84,0,0,0-.79-3.73,9.32,9.32,0,0,0-9.42-1.24,15.57,15.57,0,0,1-12.21,0s7.39,10.48,13.85,10.77C128.72,262.65,131.55,259.07,133,256.68Z" style="fill:#a8d3f1"/><path d="M6.16,24.93a3.45,3.45,0,0,1,3.18-3.37,11.3,11.3,0,0,1,10.55,4.66A18.91,18.91,0,0,0,32.58,33.9S18.29,40.11,11.4,36.33C6.79,33.8,6.11,28.3,6.16,24.93Z" style="fill:#a8d3f1"/><path d="M183.59,98.78s2.67-5,14.17,2.47,21.52,4.35,21.52,4.35l-3.74,7.84-17.25,4.66Z" style="fill:url(#linear-gradient)"/><polygon points="122.53 126.39 87.1 137.24 82.08 130.04 117.36 112.3 122.53 126.39" style="fill:#feb19e"/><path d="M255.55,279.92a.86.86,0,0,1-.07.21c-1,3.09-5.19,2.17-13,.65-3.8-.73-5.24-2-5.46-3.6-.24-1.8,1-4.1,2.16-6.76a56.75,56.75,0,0,0,3.22-10.35l10.9,2.11C252,273.77,256.49,276.55,255.55,279.92Z" style="fill:#1c4f99"/><path d="M255.48,280.13c-1,3.09-5.19,2.17-13,.65-3.8-.73-5.24-2-5.46-3.6C240.24,274.24,248.74,268.37,255.48,280.13Z" style="fill:#d7e3f4"/><path d="M285.19,172.37s2.68,18.19-9.88,54.73c-3.17,9.22-18,37.79-18,37.79l-5.93-85.45Z" style="fill:#1b3151"/><path d="M265.27,301.12a.93.93,0,0,1,0,.23c-.41,3.23-4.68,3.11-12.66,3.11-3.87,0-5.52-.94-6-2.5-.58-1.72.2-4.22.83-7a56.44,56.44,0,0,0,1.2-10.77h11.1C260.59,295.77,265.54,297.64,265.27,301.12Z" style="fill:#2256b2"/><path d="M265.23,301.35c-.41,3.23-4.68,3.11-12.66,3.11-3.87,0-5.52-.94-6-2.5C249.15,298.46,256.38,291.08,265.23,301.35Z" style="fill:#fff"/><path d="M266.21,182.27s-5.62,11.23-6.15,12,2.67,89.84,2.67,89.84H244.82c-6.42-39-12-113.55-12-113.55Z" style="fill:#23406d"/><path d="M197.63,298.47a5.5,5.5,0,0,1-.1.85c-.81,3.75-13.11,4.27-14.44,1.33a6.55,6.55,0,0,1-.41-1.82c-.35-4,.92-16.64.92-16.64h12.08S197.84,294.52,197.63,298.47Z" style="fill:#3ea9ea"/><path d="M197.63,298.47a5.5,5.5,0,0,1-.1.85c-.81,3.75-13.11,4.27-14.44,1.33a6.55,6.55,0,0,1-.41-1.82,2,2,0,0,0,2.69-.32c1.67-1.54,1.87-3.6,5.75-3.6S196.06,300,197.63,298.47Z" style="fill:#d7e3f4"/><path d="M193.68,288a.57.57,0,0,1-.25-.06c-4-2.07-6.32-.16-6.42-.08a.53.53,0,0,1-.7-.8c.12-.11,2.94-2.48,7.61-.07a.52.52,0,0,1,.23.72A.53.53,0,0,1,193.68,288Z" style="fill:#f5fafc"/><path d="M193.65,291.09a.5.5,0,0,1-.24-.06c-4-2.07-6.33-.16-6.43-.08a.54.54,0,0,1-.7-.81c.12-.1,2.94-2.48,7.61-.06a.53.53,0,0,1,.24.72A.56.56,0,0,1,193.65,291.09Z" style="fill:#f5fafc"/><path d="M176,238l5.81,46.13h15.37l2.1-46.93a24.85,24.85,0,0,1-3.42-4.69l-13-22.21Z" style="fill:#1c4f99"/><path d="M196,163.86l3.27,72.34a11.7,11.7,0,0,1-11.79,11.92h0A11.68,11.68,0,0,1,176,238l-8.17-64Z" style="fill:#2256b2"/><path d="M165.73,307.57c-.08.6-.26,1-.59,1.16-2.55,1.2-15.24,1.48-16.71,0a2.37,2.37,0,0,1-.35-1.43c-.25-4.31,2.21-16.21,2.21-16.21h11.45S166.24,303.55,165.73,307.57Z" style="fill:#3ea9ea"/><path d="M165.73,306.87c-.08.79,0,1.48-.37,1.7-2.55,1.58-15.46,2.11-16.93.16a5.76,5.76,0,0,1-.35-2.22c1.76-2.06,4.86-4.82,8.83-4.82S163.86,304.55,165.73,306.87Z" style="fill:#fff"/><path d="M161.33,300.18a.63.63,0,0,1-.19,0,15.39,15.39,0,0,0-9.46,0,.53.53,0,0,1-.68-.32.54.54,0,0,1,.32-.69,16.2,16.2,0,0,1,10.19,0,.53.53,0,0,1,.32.68A.53.53,0,0,1,161.33,300.18Z" style="fill:#f5fafc"/><path d="M160.06,297.37a.57.57,0,0,1-.18,0,9.18,9.18,0,0,0-6.16,0,.54.54,0,0,1-.43-1,10.09,10.09,0,0,1,6.94,0,.54.54,0,0,1,.33.69A.52.52,0,0,1,160.06,297.37Z" style="fill:#f5fafc"/><path d="M152.1,291.56s.67,2.81,4.31,2.81,4.78-4,4.78-4Z" style="fill:#feb19e"/><path d="M184.67,176.71s-9.91,14.11-13.92,18.93l-4.4,97.06H146.69l-6.15-97.33-1.73-16.12Z" style="fill:#3471ea"/><path d="M242.54,101.78c-3.44,3.3-28.08,26.44-37.59,22l2.43-15.86,32.69-12.82A50.12,50.12,0,0,0,242.54,101.78Z" style="fill:#feb19e"/><path d="M326.89,104.58l1.17-1.35a44.09,44.09,0,0,1,1.43-7.29c.85-2.28,1.26-2.79,1.79.49a19.08,19.08,0,0,0,1.18,4.67s3.65-4.83,3.92-7.64.8-4.26,1.58-4.22,2.34,4.59-1.12,11.6c0,0,2.84-4.65,3.16-7.84s1.48-5.19,2.39-3.29.55,7.89-3.39,12.55c0,0,4.86-4.8,4.67-8.36s2.09-2.16,2.31,2-5.19,9.25-5.19,9.25,4.53-4.14,5.66-6.7,2.3.67,1.24,3-2.54,5.52-8.5,8.14c-.34.15-3.05,1.22-3.05,1.22l-2.61,2Z" style="fill:#d6806a"/><path d="M334.39,113.44a51.55,51.55,0,0,1-3.14,5.06,78.1,78.1,0,0,1-19.59,19.65c-15.21,10.49-28.69,2.45-29.21,2.14h0a75,75,0,0,0,.89,13.94A170.9,170.9,0,0,0,288,175.58s-19.42,12.12-35.65,8.91A32.08,32.08,0,0,1,230,167.56c9.58-9.59,7.64-31.69,6.79-38.49h0c-.16-1.27-.29-2-.29-2l-.08,0c-12.26,3.15-23-4-23-4a35.5,35.5,0,0,0,3.36-1.58c9.93-5.3,22.63-16.79,22.63-16.79,3.28.67,5-.47,9.35-2.24h0l.53-.2a67.36,67.36,0,0,1,7.4-2.44,14.27,14.27,0,0,1,7.54.21c1.49.39,2.9.86,4.23,1.2,9,2.32,12.62,7,18.36,13.63,8.26,9.49,12.54,10.8,12.54,10.8l23.56-19.32,4-2.83Z" style="fill:url(#linear-gradient-2)"/><path d="M334.39,113.44a51.55,51.55,0,0,1-3.14,5.06l-8.33-12.15,4-2.83Z" style="fill:#6ecef4"/><path d="M268.46,101.24c.12,7.49-9.41,16.16-17,16.05-9.17-.12-3.4-13.77-3.4-13.77l.84-.86c.13-.12.27-.24.42-.39a67.36,67.36,0,0,1,7.4-2.44,26.56,26.56,0,0,1,7-1.07c.15.43.32.85.5,1.28C265.72,100.43,267.13,100.9,268.46,101.24Z" style="fill:#6ecef4"/><path d="M283.33,154.22c-8.83-8.58-11.06-20.7-11.06-20.7l10.17,6.76A75,75,0,0,0,283.33,154.22Z" style="fill:#2986cc"/><path d="M236.45,127.07c-12.26,3.15-23-4-23-4a35.5,35.5,0,0,0,3.36-1.58c12.74,3.47,17.88-4.4,17.88-4.4Z" style="fill:#2986cc"/><path d="M61.39,247.51s-.8,18.27,4.28,21.66,11.32.44,11.32.44l4.72-17.29-5.62-7Z" style="fill:#f2d7f1"/><path d="M62.42,248.9s1.2,20.18,5.93,18.75,4.72-2.94,7.21-1.07,3.24-6.15,3.24-6.15L76,244.92H60.92Z" style="fill:#c92d44"/><path d="M75.1,254.4l-7.36.75a.52.52,0,0,1-.59-.47.53.53,0,0,1,.48-.59l7.36-.76a.54.54,0,0,1,.11,1.07Z" style="fill:#fff"/><path d="M75.26,257.7l-7,.72a.54.54,0,0,1-.11-1.07l7-.72a.54.54,0,0,1,.11,1.07Z" style="fill:#fff"/><path d="M48,189.66l6.54,49.89a11.36,11.36,0,0,0,9.7,9.76h0a11.36,11.36,0,0,0,12.88-10.53l3.15-50-11.05-5.88Z" style="fill:#382649"/><path d="M68.35,172.91l5.34,113L91.34,287,95.8,169.15S78.21,158.88,68.35,172.91Z" style="fill:#46295b"/><path d="M92.23,305.35a4.93,4.93,0,0,1-1.68.55,55.1,55.1,0,0,1-13.82,0,5,5,0,0,1-2-.54c-1.15-1.07,2.41-15,2.41-15v-4.24l11.85.69.27,2.31S94.37,303.84,92.23,305.35Z" style="fill:#c92d44"/><path d="M90.55,305.9a55.1,55.1,0,0,1-13.82,0c1.33-2.42,4.24-6.78,6.91-7S89.18,303.34,90.55,305.9Z" style="fill:#fff"/><path d="M87.06,291.27h-7.4a.54.54,0,0,1,0-1.07h7.4a.54.54,0,1,1,0,1.07Z" style="fill:#fff"/><path d="M86.88,294.57h-7a.54.54,0,0,1,0-1.07h7a.54.54,0,1,1,0,1.07Z" style="fill:#fff"/><path d="M87.6,129.24a1,1,0,0,0,0,.11c0,.23.06.85.15,1.79.12,1.24.31,3.06.61,5.27.1.81.22,1.68.36,2.59s.29,1.89.46,2.89c.25,1.46.52,3,.83,4.56a102.52,102.52,0,0,0,6.86,22.34,6.81,6.81,0,0,1-1.41,7.68c-5,5-17,12.78-44.09,14a6.86,6.86,0,0,1-6.13-3.19,6.7,6.7,0,0,1-1-4.18c.08-1.1.16-2.17.22-3.22.36-6,.47-11,.39-15.52v-.19a142.57,142.57,0,0,0-1.07-15.06L38.1,114.63S50.91,100,68.53,99.83s40.1,17.73,40.1,17.73l13.91,8.82,13.37-2.13,2.91,16.93A64.25,64.25,0,0,1,87.6,129.24Z" style="fill:url(#linear-gradient-3)"/><path d="M43.53,143l.15-5.76c19.48,2.7,39.46-4.34,44.08-6.12.12,1.24.31,3.06.61,5.27C66.32,145.51,43.53,143,43.53,143Z" style="fill:#f96291"/><path d="M89.19,141.89c.25,1.46.52,3,.83,4.56-28.16,9.92-45.49,6.34-45.49,6.34L44.47,148C63.62,149.41,81.6,144.41,89.19,141.89Z" style="fill:#f96291"/><path d="M45.8,121.66c1,11.81,4.63,17.9,7.9,25.58l17.73-4.93L44.68,162.88l-7.48-6.55Z" style="fill:#af2567;opacity:0.67"/><path d="M88.73,139c-5.41-4.68-7.1-13.5-7.1-13.5l6,3.85c0,.23.06.85.15,1.79.12,1.24.31,3.06.61,5.27C88.47,137.22,88.59,138.09,88.73,139Z" style="fill:#af2567;opacity:0.67"/><path d="M77.42,151.17c-7.1,12.55-18.34,24.17-33,28.71.36-6,.47-11,.39-15.52v-.19Z" style="fill:#af2567;opacity:0.67"/><path d="M72.57,142.69l1.66-.8,1.87-5.61s.8-4.82.94-6,2.74,2.68,2.07,6.42c0,0,2.87-2.54,4.08-2.27s.86,2.83.86,2.83a6.26,6.26,0,0,1,3,6.09c-.41,4.26-8.15,5.58-8.15,5.58L76.76,150Z" style="fill:#fc9f9f"/><path d="M77.42,151.16l-5.27-9.22L49.27,153.73a119,119,0,0,1-1.8-35.93,30,30,0,0,0-1-3c-1.75-3.77-9.09-3-12.69,6.41-7.66,20.06-1.32,46.37,10.71,48.55C58,172.17,77.42,151.16,77.42,151.16Z" style="fill:url(#linear-gradient-4)"/><path d="M186.31,129.07c-.42,15.3,3.78,21.91,3.78,21.91s4.81,3.39,4.81,5.35a8.9,8.9,0,0,1-.89,3.74,17.88,17.88,0,0,0,2,3.79,25.38,25.38,0,0,0,2.84,3.52c-27.81,26.92-62.75,12.3-62.75,12.3l.09-.24L138.4,174s-5-2.32-1.25-7.84-1.24-41.89-1.24-41.89l-13.37,2.13-5.18-14.08a160.47,160.47,0,0,1,15-11.4c8.73-5.88,24.59-3.39,24.59-3.39,18.9-2.68,31,4.46,37.44,6.06s13,3.46,13,3.46L204,130.31l-8.64-1.24-9-1.3C186.34,128.21,186.32,128.64,186.31,129.07Z" style="fill:url(#linear-gradient-5)"/><path d="M150.16,123.71s3,29.59,1.43,40.11c0,0,16.07,6.06,30.94-2.5,0,0-4.91-25.84-5.81-38.68C176.72,122.64,168.17,128.17,150.16,123.71Z" style="fill:#f4d65b;opacity:0.53"/><polygon points="122.53 126.39 137.15 115.96 135.9 124.25 122.53 126.39" style="fill:#f6613a;opacity:0.5"/><path d="M195.35,129.07l-9-1.3c0,.44,0,.87-.05,1.3v-12S190.36,126,195.35,129.07Z" style="fill:#f6613a;opacity:0.5"/><path d="M196,163.86c-9.55,6.73-22.65,6.73-22.65,6.73,17.28-3.92,21.15-11.75,21.15-11.75h0a9.11,9.11,0,0,1-.49,1.24A17.88,17.88,0,0,0,196,163.86Z" style="fill:#f6613a;opacity:0.5"/><path d="M149.44,175.94s-7,3.51-13.27,3.5L138.4,174Z" style="fill:#f6613a;opacity:0.5"/><path d="M151.77,94.67s-1.16,24.41,12.92,22.55c12.52-1.64,4.38-16.94,4.38-16.94Z" style="fill:#f6613a;opacity:0.5"/><path d="M154,100.28a30.88,30.88,0,0,1-10.58-14.17c-3.12-9.09,2.67-10.51,2.67-10.51s-3.83-2.32-3-3.75,3.12,0,3.12,0,3.21-7.48,7-8.91,1.16,4.19,1.16,4.19,5.17-4.72,11.23-2.59,7.91,6,12.21,8.29c3,1.61,2.94,5.44-5.79,3.84,0,0,5.48.82,6,2.51s-10.65,2.32-10.65,2.32Z" style="fill:url(#linear-gradient-6)"/><path d="M168.86,110.19c-.47,2.35-1.87,4.7-5.59,4.7-7.43,0-9.3-15.72-9.3-15.72l14.91,6.35A13.68,13.68,0,0,1,168.86,110.19Z" style="fill:#feb19e"/><path d="M168.86,110.19c-2.75.27-11.64.22-14.89-11l14.91,6.35A13.68,13.68,0,0,1,168.86,110.19Z" style="fill:#ff856a"/><path d="M172.18,80.94s2.56,12,.06,20.31a6.75,6.75,0,0,1-7,4.79c-4.49-.34-10.92-2.48-13.48-11.37,0,0-3.14-2.32-2.14-5.73s4.08-1.2,3.94,2.08c0,0,3.61-3.24,1.61-10.08,0,0,5.48,2.52,7.35,1.72s-2.07-3.48-2.07-3.48A18.49,18.49,0,0,0,172.18,80.94Z" style="fill:#feb19e"/><path d="M187.06,98.78s-2.64-2.89-4.53-.35c0,0-1.58-2.62-2.93-.66s-1.16,8.29,4,8.29a8,8,0,0,0,6.41-3,1,1,0,0,1,1.88.13c.39.89.29,2.66.66,2.7.72.09,3.21-.93,2.05-5.29-.27-1-3.2-.75-3.2-.75S189.65,96.66,187.06,98.78Z" style="fill:#d6806a"/><path d="M75.67,84.07s6.56-1.39,7.47-8.14c.53-3.86-4.13-.79-4.13-.79a10.61,10.61,0,0,0,1-8.57c-1.58-4.56-2.79-3.28-6,0a8.44,8.44,0,0,1-7,2.61s1.7-1.52,1.15-3.16-6.62,2.07-11.91,2.74-12.87,5.82-9.1,15.37c0,0-4.37,9.73,11.7,19.67S75.67,84.07,75.67,84.07Z" style="fill:url(#linear-gradient-7)"/><path d="M75.14,112.83c-.5,2.5-1.82,4.81-4.84,5.62-6.51,1.76-11.59-11.83-12.89-15.67-.21-.63-.32-1-.32-1l17.67,3.12A19.77,19.77,0,0,1,75.14,112.83Z" style="fill:#fc9f9f"/><path d="M75.14,112.83c-2.83,1-10.16,1.89-17.73-10-.21-.63-.32-1-.32-1l17.67,3.12A19.77,19.77,0,0,1,75.14,112.83Z" style="fill:#f97575"/><path d="M75.67,84.07s2.8,12.1-1.08,21.36a5.21,5.21,0,0,1-5.36,3.15c-4.56-.47-12-2.72-14-12.23,0,0-2.8-2.31-2.68-5.1s4.86-1.58,5.47,3c0,0,4-2.44,1.1-9.12,0,0,5.16,2.25,6.56,1.09s-1.09-3.58-1.09-3.58A15.65,15.65,0,0,0,75.67,84.07Z" style="fill:#fc9f9f"/><path d="M263.68,96.91s9.21-12.24,3.06-21.6c0,0,2.76-1.6,2.12-2.94s-4.66,0-4.66,0-1.54-9.89-9.93-10.42S248,64.08,248,64.08s-2.54-.26-8.69,2.28-10.16,11.09-6.15,10.56c0,0-3.92,8.84,5.46,14.45Z" style="fill:url(#linear-gradient-8)"/><path d="M265.34,102.26a16.71,16.71,0,0,1-8.22,9.81c-4.74,2.47-7.23,1.27-7.83-.95a5.23,5.23,0,0,1,.21-3.05,6.43,6.43,0,0,0-.63-5.41,1.08,1.08,0,0,0-.11-.18h0a7,7,0,0,0-.73-1l12.15-10.09L262,89.84a29.64,29.64,0,0,0,1.71,8.92c.15.43.32.85.5,1.28A19.15,19.15,0,0,0,265.34,102.26Z" style="fill:#d6806a"/><path d="M249.29,111.12a5.23,5.23,0,0,1,.21-3.05c1.28-3.65-1.47-6.61-1.47-6.61l12.15-10.09a10.68,10.68,0,0,1,.27,1.73C261.34,103.2,253.52,108.84,249.29,111.12Z" style="fill:#c15c48"/><path d="M237.51,84a71.34,71.34,0,0,0,5.74,19.36,5.39,5.39,0,0,0,7,2.61c5-2.16,12.21-6.87,11.8-16.09,0,0,3.65.72,3.3-3.83s-4.28-6.51-4.46.89c0,0-2.85-.09-3.74-7.93,0,0-5.71,3.12-7.58,1.07,0,0-3.65,4.54-5.88,4.45s-.63-3.65-.63-3.65S241.79,82.89,237.51,84Z" style="fill:#d6806a"/></g></g></g></svg>