<svg xmlns="http://www.w3.org/2000/svg" xmlns:xlink="http://www.w3.org/1999/xlink" width="259.6" height="195.72" viewBox="0 0 259.6 195.72"><defs><clipPath id="clip-path"><path id="SVGID" d="M173.18,172.82c-61.83-16.49-95.9,30.89-145.6,7.49C-16,159.79,1.23,114.43,17.41,94.5S.81,30.78,27.58,10.29s67.84,19.49,118.67,1.35S229.48-2.61,238.2,17.5s-13.83,50.24,8.89,73.64C276.4,121.32,255.14,194.67,173.18,172.82Z" style="fill:none"/></clipPath><clipPath id="clip-path-2"><path id="SVGID-2" data-name="SVGID" d="M173.31,172.82c-61.83-16.49-95.89,30.89-145.6,7.49C-15.88,159.79,1.36,114.43,17.55,94.5S1,30.78,27.71,10.29s67.85,19.49,118.67,1.35,83.24-14.25,92,5.86-13.83,50.24,8.9,73.64C276.54,121.32,255.27,194.67,173.31,172.82Z" style="fill:none"/></clipPath></defs><g id="Capa_2" data-name="Capa 2"><g id="OBJECTS"><path d="M173.18,172.82c-61.83-16.49-95.9,30.89-145.6,7.49C-16,159.79,1.23,114.43,17.41,94.5S.81,30.78,27.58,10.29s67.84,19.49,118.67,1.35S229.48-2.61,238.2,17.5s-13.83,50.24,8.89,73.64C276.4,121.32,255.14,194.67,173.18,172.82Z" style="fill:#d2eaf9"/><g style="clip-path:url(#clip-path)"><rect x="0.69" y="124.39" width="258.9" height="7.03" style="fill:#9ac9ec"/></g><path d="M87.31,25.1s-39.72,76,0,76S87.31,25.1,87.31,25.1Z" style="fill:#a8d3f1"/><path d="M41.86,45s-34.86,66.67,0,66.67S41.86,45,41.86,45Z" style="fill:#a8d3f1"/><path d="M41.86,132a.67.67,0,0,1-.67-.67V76.68a.67.67,0,1,1,1.34,0V131.3A.67.67,0,0,1,41.86,132Z" style="fill:#86bde6"/><path d="M42.16,104.48a.66.66,0,0,1-.47-.19.68.68,0,0,1,0-1l5.44-5.44a.66.66,0,0,1,.94,0,.68.68,0,0,1,0,.95l-5.44,5.44A.66.66,0,0,1,42.16,104.48Z" style="fill:#86bde6"/><path d="M41.63,95.23a.67.67,0,0,1-.47-.2l-6.31-6.31a.66.66,0,0,1,.94-.94l6.31,6.31a.67.67,0,0,1-.47,1.14Z" style="fill:#86bde6"/><path d="M241.05,66.6s-23.46,44.87,0,44.87S241.05,66.6,241.05,66.6Z" style="fill:#a8d3f1"/><path d="M241.05,125.11a.45.45,0,0,1-.45-.45V87.89a.45.45,0,0,1,.9,0v36.77A.45.45,0,0,1,241.05,125.11Z" style="fill:#86bde6"/><path d="M241.26,106.6a.45.45,0,0,1-.32-.76l3.66-3.66a.45.45,0,0,1,.63.63l-3.66,3.66A.42.42,0,0,1,241.26,106.6Z" style="fill:#86bde6"/><path d="M240.9,100.38a.48.48,0,0,1-.32-.13L236.33,96a.45.45,0,0,1,.64-.64l4.24,4.25a.45.45,0,0,1,0,.64A.46.46,0,0,1,240.9,100.38Z" style="fill:#86bde6"/><circle cx="155.27" cy="29.94" r="2.51" style="fill:#fff"/><path d="M117.53,148.9a2.51,2.51,0,1,1-2.51-2.51A2.51,2.51,0,0,1,117.53,148.9Z" style="fill:#fff"/><circle cx="228.58" cy="153.92" r="2.51" style="fill:#fff"/><path d="M112,37.57a2.51,2.51,0,1,1-2.51-2.51A2.51,2.51,0,0,1,112,37.57Z" style="fill:#a8d3f1"/><circle cx="61.44" cy="63.08" r="2.51" style="fill:#a8d3f1"/><circle cx="247.87" cy="63.08" r="2.51" style="fill:#a8d3f1"/><path d="M23.45,151.41a2.51,2.51,0,1,1-2.51-2.51A2.51,2.51,0,0,1,23.45,151.41Z" style="fill:#a8d3f1"/><circle cx="50.31" cy="25.1" r="4.31" style="fill:#fff"/><path d="M212.17,21.32A4.31,4.31,0,1,1,207.86,17,4.31,4.31,0,0,1,212.17,21.32Z" style="fill:#a8d3f1"/><circle cx="4.31" cy="79.82" r="4.31" style="fill:#a8d3f1"/><path d="M195.12,148.9a4.31,4.31,0,1,1-4.31-4.31A4.31,4.31,0,0,1,195.12,148.9Z" style="fill:#a8d3f1"/><g style="clip-path:url(#clip-path-2)"><path d="M36,190.69A161.7,161.7,0,0,1,51,150.49c5.56-10.2,18.3-28.33,26.33-22.18S64.21,152,54.17,168.25c-12.6,20.4-14.58,25.33-14.58,25.33Z" style="fill:#79b0dd"/><path d="M39.32,192.6a132.7,132.7,0,0,1,21.26-27.95c6.75-6.68,21-17.88,25.84-11.17s-15.86,15.46-27.55,25.83c-14.66,13-17.37,16.41-17.37,16.41Z" style="fill:#fff"/><path d="M32.63,193.26a132.44,132.44,0,0,1,.67-35.1c1.51-9.37,6.4-26.83,14.27-24.27s-3.68,21.84-7,37.11c-4.16,19.16-4.35,23.5-4.35,23.5Z" style="fill:#a8d3f1"/><path d="M38.52,191.43C51,156.11,73.13,133.64,73.13,133.64" style="fill:none;stroke:#a8d3f1;stroke-linecap:round;stroke-miterlimit:10;stroke-width:0.9026139999999999px"/><path d="M34.72,187.28s0-25.35,8.92-46.42" style="fill:none;stroke:#79b0dd;stroke-linecap:round;stroke-miterlimit:10;stroke-width:0.9026139999999999px"/><path d="M41,192s16.51-22.46,38-33.87" style="fill:none;stroke:#9ac9ec;stroke-linecap:round;stroke-miterlimit:10;stroke-width:0.9026139999999999px"/></g><path d="M129.08,98.49v47.39l36.29-17.76V81Z" style="fill:#bd8552"/><polygon points="92.92 81 129.08 98.49 129.08 145.88 92.92 125.11 92.92 81" style="fill:#d4a16c"/><polygon points="77.21 96.39 92.92 81 129.08 98.49 113.96 117.16 77.21 96.39" style="fill:#e9bc92"/><polygon points="92.92 81 129.08 65.88 165.37 81 129.08 98.49 92.92 81" style="fill:#9a6a44"/><polygon points="165.3 123.27 165.3 128.12 129.01 145.88 129.08 140.68 165.3 123.27" style="fill:#634e42;opacity:0.58"/><polygon points="92.85 120.45 129.08 140.68 129.01 145.88 92.85 125.11 92.85 120.45" style="fill:#634e42;opacity:0.58"/><path d="M152.37,124.06l-4.56,2.13a2.19,2.19,0,0,1-2.95-.91h0a2.19,2.19,0,0,1,.9-3l4.56-2.13a2.19,2.19,0,0,1,3,.91h0A2.19,2.19,0,0,1,152.37,124.06Z" style="fill:#9a6a44"/><polygon points="182.52 95.33 146.3 115.84 129.08 98.49 165.37 81 182.52 95.33" style="fill:#e9be93"/><polygon points="129.08 98.49 129.08 65.88 92.92 81 129.08 98.49" style="fill:#a57555"/></g></g></svg>