<svg xmlns="http://www.w3.org/2000/svg" width="24" height="24" viewBox="0 0 24 24">
    <path fill="#5BC4E6" fill-rule="evenodd" d="M18.833 7.306a3.689 3.689 0 0 0 1.619-2.036 7.362 7.362 0 0 1-2.34.892A3.682 3.682 0 0 0 11.84 9.52a10.45 10.45 0 0 1-7.59-3.848 3.677 3.677 0 0 0-.498 1.853 3.68 3.68 0 0 0 1.638 3.064 3.684 3.684 0 0 1-1.668-.459v.045a3.682 3.682 0 0 0 2.954 3.61 3.665 3.665 0 0 1-1.663.064 3.683 3.683 0 0 0 3.44 2.556 7.386 7.386 0 0 1-4.573 1.577c-.298 0-.591-.017-.879-.05a10.439 10.439 0 0 0 5.644 1.652c6.773 0 10.476-5.609 10.476-10.475 0-.16-.003-.32-.01-.477a7.449 7.449 0 0 0 1.837-1.905c-.66.292-1.37.49-2.114.579z"/>
</svg>
