<svg xmlns="http://www.w3.org/2000/svg" xmlns:xlink="http://www.w3.org/1999/xlink" width="24" height="24" viewBox="0 0 24 24">
    <defs>
        <path id="a" d="M0 0h16v16H0z"/>
    </defs>
    <g fill="none" fill-rule="evenodd">
        <g transform="translate(4 4)">
            <mask id="b" fill="#fff">
                <use xlink:href="#a"/>
            </mask>
            <path fill="#5BC4E6" d="M12.929 3.975a.867.867 0 1 1 0-1.733.867.867 0 0 1 0 1.733M8.081 11.65A3.654 3.654 0 0 1 4.431 8a3.655 3.655 0 0 1 3.65-3.649A3.655 3.655 0 0 1 11.731 8a3.654 3.654 0 0 1-3.65 3.65M11.934 0H4.066A4.071 4.071 0 0 0 0 4.064v7.87a4.07 4.07 0 0 0 4.066 4.064h7.868A4.07 4.07 0 0 0 16 11.934V4.065A4.071 4.071 0 0 0 11.934 0" mask="url(#b)"/>
        </g>
        <path fill="#5BC4E6" d="M12.081 9.662A2.34 2.34 0 0 0 9.743 12a2.34 2.34 0 0 0 2.338 2.338A2.34 2.34 0 0 0 14.418 12a2.34 2.34 0 0 0-2.337-2.338"/>
    </g>
</svg>
