<svg xmlns="http://www.w3.org/2000/svg" width="688" height="488" viewBox="0 0 688 488">
    <g fill="none" fill-rule="evenodd">
        <path fill="#FFF" fill-rule="nonzero" d="M54.77 488c-3.64-.3-5.39-4.53-6.34-8.06-6.33-23.66-12.27-47.53-14.77-71.89-2.61-25.46-1.62-52.33 7.35-76.54 26.58-71.69 105.97-84.12 172.61-67.24 24.1 6.1 46.77 16.71 69.81 26.04 49.04 19.84 101.95 33.91 155.23 32.29 56.9-1.72 113.74-43.9 170.09-18.82 71.24 31.71 66.61 120.58 38.29 180.8"/>
        <path stroke="#5D72DC" stroke-linecap="round" stroke-linejoin="round" stroke-width="2" d="M467.72 311.08L413.19 88.9c-3.74-15.45-19.3-24.95-34.75-21.21l-31.61 7.65c-2.16.52-3.5 2.7-2.97 4.87 2.36 9.74-3.63 19.56-13.37 21.91l-91.65 22.18c-9.74 2.36-19.56-3.63-21.91-13.37-.52-2.16-2.7-3.5-4.87-2.97l-31.61 7.65c-15.45 3.74-24.95 19.3-21.21 34.75l27.4 113.18"/>
        <path fill="#FFF" fill-rule="nonzero" d="M218.55 182.86c-.34.41-.6.88-.77 1.33-2.24 5.96 6.8 11.47 11.57 12.04 1.23 3.81 4.56 6.48 7.1 9.58 6.7 8.18 7.7 20.56 2.42 29.71-1.08 1.87-2.41 3.64-3.01 5.72-.98 3.39.16 7.07 2.04 10.05 3.05 4.84 7.89 8.24 12.79 11.18 18.15 10.9 39.03 17.21 60.18 18.2 1.55-6.97 2.6-14.27 4.69-21.09 2.12-6.93 5.55-7.11 12.2-9.81 9.23-3.74 18.45-7.48 27.68-11.21 10.83-4.38 9.22-6.8 12.99-17.5l-62.24 1.66c-9.4-2.28-18.21 8.66-27.68 6.69.09-.55-.2-1.14-.69-1.41-3.72-2.04-1.26-10.65.13-13.11 3.49-6.18 8.86-10.14 11.35-17.28.6-1.72 1.14-3.57 2.47-4.83.64-.61 1.41-.95 2.16-1.41.55-.34.83-.95 1.19-1.49 1.01-1.55 1.71-3.3 2.14-5.09.53-2.21.66-4.49.57-6.76-.04-.88-.11-1.78-.5-2.57-.91-1.87-2.87-1.41-4.58-1.67-2.09-.32-4.06-1.16-6-1.96-7.89-3.26-15.92-6.19-24.06-8.78-3.78-1.2-7.49-2.38-11.21-3.72-8.03-2.89-16.61-.74-21.05 6.8-2.45 4.17-3.7 8.94-5.99 13.2-.46.85-.99 1.71-1.8 2.22-.81.51-1.73-.08-2.53.16-.6.2-1.13.63-1.56 1.15"/>
        <path fill="#F7F7F7" fill-rule="nonzero" d="M317.02 486.35l-13.17-90.31c-1.29-8.84-3.49-17.14-2.47-26.02.76-6.63 1.91-13.15 2.87-19.75 2.33-16.09 3.86-32.3 4.61-48.55.11-2.49 1.44-8.36-.3-10.26-.58-.63-2.35-.54-3.13-.96-1.32-.7-2.4-2.16-3.54-3.13-5.14-4.38-11.13-7.7-17.35-10.27-8.43-3.48-17.34-5.64-26.2-7.79-9.92-2.4-19.83-4.8-29.75-7.21-4.49-1.09-9.1-1.98-13.37-3.6-3.8-1.45-7.6-3-11.74-3.08-8-.15-12.57 8.93-15.51 15.35-.32.7-.63 1.42-.75 2.18-.3 1.84.51 3.65 1.24 5.37 2.86 6.81 4.12 14.08 6.11 21.15.19.67.46 1.43 1.12 1.66.59.2 1.22-.14 1.75-.48a31.55 31.55 0 0 0 5.1-4.11c.82-.81 1.6-1.68 2.57-2.29 6.98-4.36 6.86 9.08 7.37 12.78.94 6.95 1.89 13.9 2.83 20.85 1.4 10.3 2.8 20.59 4.19 30.89l.03.19c.64 7.36-3.18 15.72-5.02 22.63-2.18 8.18 1.83 16.11 4.22 24.2 7.61 25.83 10.35 53.83 19.99 79.08.22.58.47 1.19.96 1.58.63.5 1.49.51 2.29.51l8.81-.03 65.48.01"/>
        <path fill="#D1D7F5" fill-rule="nonzero" d="M163.93 326.03l20.02 89.75h11.97l-9.61-74.89z"/>
        <path fill="#E6E6E6" fill-rule="nonzero" d="M242.36 211.35c7.86 5.86 18.14 8.36 27.81 6.79 1.34-.22 3.79-1.75 4.97-1.02.95.59 1.34 1.77 1.49 2.87.15 1.1.12 2.25.54 3.29-8.16 3.28-17.69-.25-26.1 2.3-3.56 1.08-6.71 3.19-9.79 5.27.52-6.03 1.14-12.06 1.84-18.07M210.09 283.12c4.32 15.94 8.67 31.98 15.62 46.96 6.95 14.98 16.72 29 30.12 38.66-3.59 3.03-4.87 7.93-5.78 12.54-6.85 34.53-3.96 70.94 8.27 103.96-6.65-.13-13.31-.09-19.96.12-3.97-17.6-7.94-35.19-11.9-52.79-2.7-11.99-5.41-23.98-8.11-35.97-1.12-4.95-3.79-10.79-4.14-15.69-.65-9.2 7.94-16.98 4.81-26.64l-10.13-71.36M207.91 289.4c.19-4.25.77-15.8-6.25-14.66-2.45.4-4.46 2.16-6.2 3.81-1.65 1.57-3.93 2.8-4.16 5.28-.13 1.43.25 2.84.63 4.23.83 3 1.66 6 2.48 9 .21.76.46 1.57 1.09 2.05 1.5 1.13 6.12-4.23 7.36-5.31 1.68-1.47 3.37-2.94 5.05-4.4"/>
        <path fill="#E6E6E6" fill-rule="nonzero" d="M226.77 316.99c.57 0-.12-.39-.38-.39-.57.01.12.39.38.39M201.97 485.83c-.66.56-1.61.57-2.48.56-5.02-.07-10.04.23-15.02.9-1.22.16-2.85.09-3.17-1.09-.12-.43 0-.88.11-1.31 2-7.57 4-15.14 6-22.72 1.23-4.67 2.51-9.44 5.15-13.48l9.78 33.3c.38 1.3.67 2.95-.37 3.84"/>
        <path fill="#D1D7F5" fill-rule="nonzero" d="M488.54 330.65c-.31-1.33-.95-4.12-1.82-7.88-3.66 6.13-7.19 12.36-12.28 17.26 2.14 8.68 4.29 17.36 6.43 26.05 2.64 10.7 5.28 21.4 7.92 32.09 2.48 10.04 4.96 20.08 7.44 30.13 2.14 8.66 4.28 17.32 6.41 25.98 1.62 6.55 3.24 13.11 4.85 19.66l2.76 11.17.43 1.74 14.53-.91c-.31-1.29-34.59-146.51-36.67-155.29M157.09 105.1c17.56-9.15 36.45-12.02 55.46-16.79 27.33-6.85 54.66-13.71 81.99-20.56.53-.66.53-2.49.12-3.23a1171.28 1171.28 0 0 1-91.29 10.88l-45.29 11.31c-27.74 6.92-44.61 35.02-37.68 62.76.37 1.49.74 2.98 1.12 4.47l3.03 12.14 4.47 17.9 5.43 21.76c1.97 7.9 3.95 15.81 5.92 23.71 1.98 7.92 3.96 15.84 5.93 23.77 1.82 7.31 3.65 14.61 5.47 21.92l4.53 18.16 1.32 5.31h-.27l11.32 47.32.62-.56 35.53 142.33h18.12c-4.92-19.73-9.85-39.46-14.78-59.19-8.02-32.14-24.07-96.41-24.07-96.41s-17.91-71.76-23.94-95.9c-7.31-29.3-14.54-58.89-21.98-88.04-3.91-15.46 4.92-35.77 18.92-43.06"/>
        <path stroke="#5D72DC" stroke-linecap="round" stroke-linejoin="round" stroke-width="2" d="M308.71 83l-56.77 13.74a3.148 3.148 0 1 0 1.48 6.12l56.77-13.74a3.148 3.148 0 0 0 2.32-3.8 3.165 3.165 0 0 0-3.8-2.32z"/>
        <path stroke="#0223C9" stroke-linecap="round" stroke-linejoin="round" stroke-width="2" d="M167.99 343.04l-46.74-193.11c-7.04-29.1 10.84-58.4 39.94-65.45l219.98-53.25c29.1-7.04 58.4 10.84 65.45 39.94L547.93 486.2"/>
        <path stroke="#5D72DC" stroke-linecap="round" stroke-linejoin="round" stroke-width="2" d="M474.01 342.06c12.66 48.37 22.17 96.78 35.57 144.8"/>
        <path stroke="#5D72DC" stroke-linecap="round" stroke-linejoin="round" stroke-width="3.028" d="M189.4 368.38l3.23 12.94"/>
        <path fill="#E6E6E6" fill-rule="nonzero" d="M552.76 219.22c.38 0 .78-.36.19-.36-.38-.01-.79.36-.19.36"/>
        <path fill="#FFF" fill-rule="nonzero" d="M385.84 147.1c-3.75.37-7.54 1.28-10.64 3.42-3.96 2.72-6.41 7.1-8.53 11.4-1.56 3.16-3.02 6.36-4.39 9.6-1.43-2.49-3.3-4.74-5.49-6.61-.29-.25-.6-.49-.98-.53-.99-.1-1.47 1.17-1.58 2.16a48.14 48.14 0 0 0-.29 7.1c.06 1.76.21 3.56.87 5.2.65 1.64 1.86 3.13 3.51 3.76.27.1.55.19.76.39.25.25.33.62.4.97a66.607 66.607 0 0 0 7.87 20.94c1.38 2.35 2.95 4.81 2.87 7.54l-6.82 24.14c-3.56.48-7.38.22-10.97.03-4.27-.24-8.42-1.43-12.66-1.97-1.04-.13-1.83 1.72-2.24 2.61-.78 1.67-.8 3.39-.8 5.2 0 2.35-.28 4.7-.84 6.99-.46 1.87-1.11 3.73-1.16 5.65-.03 1.09.13 2.17.29 3.25.24 1.65.49 3.3.73 4.94 4.9 1.58 9.08 4.22 13.98 5.8 6.71 2.17 13.45 4.35 20.42 5.43 3.47.54 6.98.81 10.49 1 13.37.73 26.79.39 40.11-1.01l2.39-28.67c-2.61-.33-5.41-.9-8.04-.96-.87-.02-1.74-.01-2.6-.08-1.76-.13-3.49-.55-5.11-1.25-1.07-.46-2.24-1.32-2.1-2.47l-2.51-23.65c1.75 0 3.8-.95 5.5-1.34 1.36-.31 2.74-.69 3.89-1.49 1.05-.73 1.84-1.78 2.61-2.8 4.21-5.6 8.44-11.22 11.79-17.37.88-1.61 1.71-3.31 1.91-5.13.16-1.46-.09-2.93-.34-4.37-.63-3.65-1.35-7.48-3.69-10.36-1.56-1.92-3.72-3.25-5.96-4.3-9.87-4.64-19.6-11.37-27-19.39-1.57-1.71-3.39-3.99-5.65-3.77"/>
        <path fill="#E6E6E6" fill-rule="nonzero" d="M315.09 252.28c-.18-1.84-.17-4.09 1.4-5.06.37-.22.78-.35 1.19-.48 11.7-3.53 28.36-5.31 35.03-17.11 2.48-4.38.91-7.35 6.34-8.54 4.18-.92 6.55.41 7.24 4.62 1.31 8.01-8.8 13.45-14.7 15.78-11.29 4.46-22.7 8.59-34.13 12.66-.41.15-.86.3-1.28.18-.79-.22-1.01-1.22-1.09-2.05"/>
        <path fill="#F7F7F7" fill-rule="nonzero" d="M316.16 296.77c.12 2.1.28 4.2.43 6.3.57 7.65 1.83 15.39 1.94 23.07.25 16.95.5 33.91.74 50.86.08 5.61.16 11.27-.84 16.79-1.13 6.2-3.58 12.07-5.55 18.07-3.14 9.55-5.04 19.51-5.65 29.54-.3 4.9-.28 9.88.97 14.61 1.41 5.33 4.33 10.14 6.06 15.37 1.06 3.2.77 9.56 2.89 12.13 3.16 3.83 11.8 2.86 16.11 2.66 18.87-.88 37.77-1.13 56.66-.77 9.69.19 19.37.54 29.04 1.04 4.58.24 9.72 1.92 12.47-1.53 1.91-2.39 1.14-5.91 1.18-8.71.14-9.18-3.38-17.31-6.21-25.96-6.72-20.53-13.04-41.93-10.97-63.78.7-7.38 2.35-14.63 3.99-21.86l11.22-49.4c.1-.42.2-.86.47-1.2 1.12-1.4 3.27.14 4.31 1.59 5.05 7.08 10.11 14.16 15.16 21.25 2.61 3.65 5.28 7.38 8.91 10.02 3.63 2.64 8.46 4.06 12.69 2.56 5.24-1.85 8.07-7.37 10.4-12.41 4.81-10.4 9.61-20.81 14.42-31.21 2.1-4.54 4.77-8.86 5.1-13.85.35-5.2 1.69-10.82 3.61-15.65 2.19-5.51 5.9-10.63 11.18-13.34 3.58-1.84 7.74-2.51 11.02-4.83.8-.56 1.49-1.88.64-2.34-.19-.11-.42-.12-.64-.13-3.95-.2-7.94.48-11.6 1.98 2.43-2.19 4.64-4.63 6.59-7.26 1.57-2.13 3.02-4.82 2.11-7.3-.11-.3-.27-.6-.53-.78-.68-.46-1.57.13-2.17.69a93.89 93.89 0 0 0-8.79 9.48c1.28-2.75 2.55-5.5 3.83-8.25 1.21-2.61 2.37-5.89.59-8.15-2.34-.14-4.11 2.03-5.35 4.03a84.526 84.526 0 0 0-4.91 9.08c.65-5.64 3.72-11.26 2.11-16.7-2.96.73-4.37 4.01-5.44 6.86a178.33 178.33 0 0 1-5.24 12.54c-1.24-.73-1.82-2.19-2.28-3.56-.45-1.37-.94-2.84-2.1-3.7-1.16-.86-3.21-.6-3.58.79-.14.53-.02 1.08.1 1.61.74 3.37 1.16 6.8 1.26 10.25.05 1.81.02 3.63-.28 5.42-.35 2.05-1.03 4.03-1.76 5.97-2.79 7.49-6.49 14.48-9.81 21.71-3.27 7.11-5.59 14.48-8.69 21.65-.45 1.05-1.6 2.27-2.5 1.57-.2-.16-.33-.39-.46-.62-3.11-5.81-4.48-12.31-6.61-18.49-.72-2.1-1.53-6.11-3.73-7.19-1.92-.94-5.44.02-7.45.17-14.71 1.13-29.38 3.07-44.15 3.27-10.73.14-21.52-.67-31.94-3.36-18.95-4.89-35.49-15.72-52.7-24.61-1.72-.89-4.47-3.18-6.55-2.05-.85.46-1.41 1.33-1.75 2.24-.83 2.21-.5 4.66-.17 6.99.15 1.07.31 2.14.46 3.22.46 3.19 1.78 6.48 1.85 9.63.05 1.88-.43 3.93-.43 5.86.05 2.71.16 5.42.32 8.12"/>
        <path fill="#E6E6E6" fill-rule="nonzero" d="M384.78 401.29c-7.77.25-15.82.57-22.78 4.04-13.87 6.92-19.1 23.74-22.53 38.85-2.18 9.62-4.2 19.28-6.05 28.97-1.26 6.63-1 14.61-10.05 13.48-2.24-.28-4.8-.76-5.95-2.71-.62-1.06-.68-2.34-.73-3.57a239.71 239.71 0 0 0-4.04-34.93c-1.4-7.33-3.15-14.65-3.2-22.11-.1-13.4 7.62-29.11 12.37-41.54"/>
        <path fill="#E6E6E6" fill-rule="nonzero" d="M317.97 290.61c.86 10.84 2.11 21.66 3.76 32.41 2.31 15.09 5.49 30.32 12.73 43.76 7.24 13.44 19.07 25.05 33.84 28.94 4.17 1.1 8.78 1.71 11.89 4.7-17.77.83-35.63-.24-53.18-3.17-2.22-.37-4.55-.83-6.25-2.29-1.7-1.47-2.45-4.3-.96-5.99.64-33.23-1.39-66.77-2.78-100.15M367.62 486.78c2.8-.58 2.35-2.34 2.02-6.41-.48-5.96-1.11-11.92-1.88-17.85-.32-2.5 0-6.26-2.39-7.72-2.29-1.4-7.33-.9-9.98-1.17-.64 6.17-1.73 12.29-2.99 18.37-.81 3.9-5.44 13.5.3 14.27 4.07.54 8.19.81 12.29.74 1.1-.02 1.96-.09 2.63-.23"/>
        <path fill="#E1E1E1" fill-rule="nonzero" d="M422.27 178.22c5.37 5.26 7.61 8.85 4.48 15.67-2.8 6.1-5.86 12.15-10.76 16.86-3.58 3.44-8 6-12.76 7.41.29 3.44.61 7.2 1.64 10.52 1.27 4.1 1.06 3.77 5.33 4.4 6.15.9 12.51 1.1 18.72 1.14 3.57.02 32.54.45 31.15-5.44-3.18-13.44-7.67-26.48-10.82-39.92-3.01-12.87-6.02-26.06-13.2-37.35-9.74-15.32-25.98-25.8-44.62-22.55-2.52.44-4.97 1.3-7.08 2.75-7.93 5.46-3.49 12.51 1.97 17.8 7.87 7.61 17.14 13.48 25.78 20.06l7.44 6.1c.92.83 1.83 1.68 2.73 2.55"/>
        <path fill="#E6E6E6" fill-rule="nonzero" d="M442.83 324.98c-.92-1.55-1.92-3.06-3.09-4.52-2.69-3.35-5.88-5.88-6.3-10.81-.22-2.56 1.25-4.5 1.69-6.89.41-2.24.32-4.65.69-6.95.25-.28.64-.44 1.02-.4.55.06 4.56 9.65 5.28 10.82 3.3 5.39 6.62 10.91 10.1 16.18 4.41 6.67 10.7 12.94 18.64 13.81 5.09.56 10.13-1.19 14.86-3.15-2.94 4.81-6.21 9.42-9.78 13.78-.75.91-1.54 1.84-2.61 2.34-1.24.57-2.67.49-4.02.28-9.29-1.4-17.36-7.89-21.94-16.1-1.58-2.85-2.93-5.67-4.54-8.39M404.08 229.94c-1.67-2.67-4.97-3.92-8.11-4.06-3.14-.14-6.24.65-9.34 1.18a59 59 0 0 1-15.7.6c-1.09-.1-2.29-.3-2.95-1.17-.45-.59-.54-1.37-.58-2.12-.2-4.51 1.27-8.93 2.96-13.11.56-.04 1.12-.09 1.68-.13 1.81 2.27 4.48 3.67 7.19 4.71a39.262 39.262 0 0 0 19.35 2.2c1.3-.18 2.92-.3 3.63.81.38.59.35 1.35.31 2.06-.09 1.36 1.64 7.66 1.56 9.03"/>
        <path fill="#ECECEC" fill-rule="nonzero" d="M397.07 134.21c-.81 2.7.36 5.66 2.24 7.76 1.87 2.1 4.36 3.53 6.75 5.02 6.73 4.22 12.93 9.23 19.1 14.22 1.8 1.45 3.59 2.91 5.39 4.36.88.71 1.79 1.41 2.65 2.15 1.18 1.02 1.58-.22 1.39-1.29-.22-1.28-.58-2.55-.88-3.81-.47-2.02-.8-4.37-1.77-6.23-2.14-4.08-4.55-7.52-7.79-10.9-6.23-6.51-15.06-13.73-24.67-13.1-.55.04-1.13.11-1.58.44-.43.34-.67.86-.83 1.38"/>
        <path stroke="#FFF" stroke-linecap="round" stroke-linejoin="round" stroke-width="2" d="M437.48 171.99c.71 2.59 1.25 5.23 1.62 7.9M422.87 145.51c5.49 5.96 9.79 12.98 12.68 20.54"/>
        <path fill="#C8C8C8" fill-rule="nonzero" d="M437 234.3c-.98-15.93-2.04-33.16-9.44-47.3.32 2.01-.06 4.22-1.31 6.94-2.8 6.1-5.86 12.15-10.76 16.86-3.58 3.44-8 6-12.76 7.41.29 3.44.61 7.2 1.64 10.52 1.27 4.09 1.06 3.77 5.33 4.4 6.15.9 12.51 1.1 18.72 1.14 1.16.01 3.96.17 8.58.03M366.79 221.11c1.82-1.29 4.02-6.75 4.06-8.69.05-2.7-2.07-4.86-3.55-7.12-1.15-1.75-1.95-3.69-2.75-5.62-1.97-4.77-3.95-9.54-5.93-14.3-.45-.77-1.41-1.02-2.31-.86.11-.49.21-.97.3-1.42.17-.82-.36-1.62-1.17-1.79-.82-.17-1.62.36-1.79 1.18-.13.63-.27 1.3-.43 2.02-1.49 6.93-2.89 14.07-2.26 21.19.32 3.68 1.2 7.4 3.16 10.57.81 1.31 2.11 3.38 3.5 4.11 2.17 1.14 6.08.93 8.48.94.19 0 .39 0 .55-.1.04-.04.09-.07.14-.11"/>
        <path fill="#E1E1E1" fill-rule="nonzero" d="M388.05 149.27c-1.02-1.14-2.03-1.92-3.02-2.46.36-.03.72-.05 1.08-.08-1.56-2.83-3.11-5.65-4.67-8.48-.21-.38-.43-.76-.7-1.09.12-.04.23-.09.35-.13.78-.26 1.2-1.12.94-1.9a1.494 1.494 0 0 0-1.9-.94c-10.15 3.44-17.94 11.79-21.94 23.51-.24.7-.72 1.96-1.28 3.42l-.77 2.01a1.502 1.502 0 0 0 1.56 2.02 1.5 1.5 0 0 0 1.24-.96l.17-.44c.16.5.36.99.66 1.46.45.71.91 1.42 1.36 2.13-.03.09-.06.17-.09.26-.32.9-.64 1.78-.96 2.64-.29.77.1 1.64.88 1.93.23.09.46.11.68.09.54-.06 1.04-.42 1.24-.97.32-.87.65-1.76.97-2.67 2.76-7.67 5.61-15.61 13.41-18.68 3.39-1.33 5.61-1.99 8.55 1.31.55.62 1.5.67 2.11.12.63-.53.68-1.48.13-2.1"/>
        <path stroke="#514E4F" stroke-linecap="round" stroke-linejoin="round" stroke-width="2" d="M430.3 460.8c1.38 7.65 2.42 15.23 2.94 22.64M435.9 296.54l-19.56 85.14a51.09 51.09 0 0 0 .61 25.29c4.9 17.4 10.08 35.8 13.33 53.82M359.76 183.15c.64 10.7 4.43 20.91 11.85 27.73M383.34 217.62c8.42 2.67 18.01 2 25.58-2.61 9.58-5.84 15.93-16.73 19.74-26.92M363.68 235.63c.35-.6 7.49-24.29 7.49-24.29"/>
        <path stroke="#514E4F" stroke-linecap="round" stroke-linejoin="round" stroke-width="2" d="M361.68 171.01l-2.13-3.78c-.57-1.02-1.17-2.07-2.12-2.75-.95-.68-2.35-.88-3.25-.14-.75.62-.95 1.68-1.07 2.64a43.93 43.93 0 0 0-.28 7.07c.09 2.32.4 4.72 1.68 6.65 1.28 1.93 3.77 3.23 5.96 2.47M334.65 247.95l-1.15 15.37s30.8 17.1 87.34 11.51c.32-.03.59-.11.82-.22l.59-13.94"/>
        <path stroke="#E1E1E1" stroke-linecap="round" stroke-linejoin="round" stroke-width="2" d="M437 234.18c9.67-.22 24.05-1.21 23.06-5.4-3.18-13.44-7.67-26.48-10.82-39.92-3.01-12.87-6.02-26.06-13.2-37.35-9.74-15.32-25.98-25.8-44.62-22.55-2.52.44-4.97 1.3-7.08 2.75"/>
        <path stroke="#D1D1D1" stroke-linecap="round" stroke-linejoin="round" stroke-width="2" d="M405.97 232.54c7.6 1.06 15.26 1.63 22.94 1.68 1.03 0 4.17.05 8.09-.04M384.34 131.7c-7.93 5.46-3.49 12.51 1.97 17.8 7.87 7.61 17.14 13.48 25.78 20.06l7.44 6.1a94.3 94.3 0 0 1 2.74 2.56c7.88 7.72 10.97 18.37 11.48 29.24"/>
        <path stroke="#514E4F" stroke-linecap="round" stroke-linejoin="round" stroke-width="2" d="M371.33 173.47c1.3-5.53 6.84-8.96 12.38-7.66 5.53 1.3 8.96 6.84 7.66 12.38-1.3 5.53-6.84 8.96-12.38 7.66-5.53-1.3-8.96-6.84-7.66-12.38zM398.56 179.89c1.3-5.53 6.84-8.96 12.38-7.66 5.53 1.3 8.96 6.84 7.66 12.38-1.3 5.53-6.84 8.96-12.38 7.66-5.53-1.31-8.96-6.85-7.66-12.38zM391.37 178.19l7.18 1.69M309.43 419.27c.29-.83 1.29-3.93 1.58-4.77 4.52-13.13 10.14-25.48 9.5-39.37-1.5-32.4-2.63-63.34-4.13-95.74h-3.74M471.11 311.93l-3.56 8.02"/>
        <path stroke="#514E4F" stroke-linecap="round" stroke-linejoin="round" stroke-width="2" d="M320.55 379.66c-.38 4.67 5.3 8.9 9.67 10.62a140.29 140.29 0 0 0 47.31 9.66c12.76.36 27.69-2.1 37.63-10.12M498.36 252.26c-1.39-.26-2.06-5.18-2.65-6.32-.6-1.15-1.75-3.45-3.3-2.42-2.06 1.36-.83 4.61-.42 6.44.54 2.41.85 10.68.86 13.66 0 .64-.11 1.27-.33 1.87-.08.2-.17.4-.27.59-12.86 24.34-16.63 34.29-19.61 42.56l-2.13 4.62c-.4.86-1.64.82-1.98-.07-1.92-5.04-6.35-16.75-8.26-22.38-2.67-7.86-5.49-15.57-8.59-23.27-2.67-5.59-5.93-11.43-11.24-14.93-3.97-2.62-8.4-4.63-12.99-6.01M515.22 257.71c3.21-2.67 10.41-11.16 10.78-13.06.47-2.41-2.15-2.49-3.53-1.36-1.99 1.62-8.33 7.65-10.02 9.12 1.21-1.06 4.4-8.44 5.74-10.96.73-1.38 1.96-3.05 1.18-4.77-.81-1.79-2.23-.85-3.18.26-1.89 2.22-3.48 4.73-5.31 7.01-1.3 1.62-2.48 3.67-3.84 5.6 1.24-4.14 2.06-7.66 2.87-12.08.2-1.11.94-4.44-.34-5.24-2.09-1.31-7.62 13.64-8.39 15.47-.35.83-1.6 4.56-2.86 4.26"/>
        <path stroke="#514E4F" stroke-linecap="round" stroke-linejoin="round" stroke-width="2" d="M514.84 257.93c4.06-1.03 8.12-2.17 12.21-3.09 1.6-.36 1.77 1.19 1.13 2.26-.48.8-1.27 1.4-2.05 1.88-1.54.96-3.26 1.52-4.91 2.23-1.8.77-3.87 1.42-5.46 2.59-7.78 5.71-7.46 5.42-10.33 14.51-5.34 16.92-8.79 34.31-16.66 50.18-3.07 6.18-6.56 12.73-11.79 17.37-5.11 4.53-11.59 5.13-17.37 1.26-5.92-3.97-10.09-11.2-14.4-16.74-4.44-5.71-8.26-11.84-12.52-17.52M355.57 452.51c3.34 1.12 7.67 1.05 11.16 1.53 1.44 10.92 2.58 21.74 3.39 32.56M0 486.86h80.46"/>
        <path stroke="#0223C9" stroke-linecap="round" stroke-linejoin="round" stroke-width="2" d="M77.66 257.87c1.47 1.13 3.63.39 4.08-1.41l4.08-16.08 3.57-14.08c.56-2.2-1.78-4-3.76-2.89l-12.69 7.07-14.49 8.07c-1.62.9-1.79 3.18-.32 4.31l5.64 4.34-9.67 12.58c-.93 1.22-.71 2.96.51 3.89l3.85 2.96c1.22.93 2.96.71 3.89-.51l9.67-12.58 5.64 4.33z"/>
        <path stroke="#92A0E8" stroke-linecap="round" stroke-linejoin="round" stroke-width="2" d="M516.89 123.41l33.09 8.75M529.06 144.33l8.75-33.08M54.71 168.93l15.53-11.16M68.05 171.12l-11.16-15.53"/>
        <path stroke="#514E4F" stroke-linecap="round" stroke-linejoin="round" stroke-width="2" d="M218.26 353.02c1.67 6.75 9.23 10.07 15.97 11.91 17.98 4.93 36.93 6.36 55.45 4.19 4.59-.54 9.67-1.61 12.25-5.42"/>
        <path fill="#FFF" fill-rule="nonzero" d="M154.43 310.98l2.93 12.36c.04.61.55 1.07 1.02 1.47 2 1.67 4.12 3.01 5.56 5.14 1.71 2.54 3.15 5.32 4.71 7.96 1.68 2.84 3.37 5.68 5.05 8.52 1.58 2.68 3.61 4.76 5.69 7.08 1.97 2.2 3.95 4.41 5.65 6.83 1.02 1.45 1.94 2.98 3 4.4 2.16 2.92 4.87 5.37 7.29 8.07 2.62 2.92 3.93 5.83 5.44 9.4.46 1.09.92 2.19 1.15 3.35.65 3.38-.8 6.77-2.22 9.9-.22.5-.47 1.02-.94 1.3-.59.35-1.34.2-2.02.33-.72.14-1.33.6-1.95.99-2.71 1.71-6.14 2.25-9.25 1.44-.39-.1-.81-.24-1.04-.57-.26-.36-.22-.85-.18-1.29.87-9.95-3.53-19.69-9.52-27.41-7.59-9.77-17.03-18.5-25.45-27.57-2.11-2.27-4.26-4.61-5.37-7.5-1.69-4.39-.68-9.45 1.58-13.58 2.26-4.12 5.65-7.49 9-10.8"/>
        <path fill="#E6E6E6" fill-rule="nonzero" d="M150.28 312.5c-4.18 7.73-3.64 17.79 1.35 25.03l32.2 33.1c1.24 2.54 2.52 4.71 3.77 7.24.73 1.48 1.47 2.99 2.56 4.23 1.6 1.82 3.83 2.95 6.06 3.91.31.13.64.27.86.54.32.38.34.91.34 1.41-.01 1.6-.15 3.21-.41 4.79-.16.99-.38 1.98-.89 2.84-1.57 2.65-5.19 3.03-8.28 3.12-1.08.03-2.24.03-3.11-.6-1.27-.93-1.36-2.81-1-4.35.35-1.54 1.02-3.07.8-4.63-.27-1.88-1.73-3.32-2.7-4.94-2.44-4.07-1.92-9.63-5.09-13.16l-30.89-30.91c-2.04-3.33-5.02-8.26-4.64-12.15.27-2.76 1.79-5.26 3.56-7.4"/>
        <path fill="#FFF" fill-rule="nonzero" d="M404.68 223.63c7.06 7.73 13.8 15.73 20.22 24 2.76 3.56 5.11 7.11 8.61 9.88a84.6 84.6 0 0 1 10.92 10.41c3.53 4.03 6.43 8.87 6.9 14.2-2.5-.54-4.43-2.46-6.21-4.28.47 1.66.95 3.33 1.42 4.99.35 1.23.56 2.87-.55 3.51-1.3.76-2.74-.71-3.52-2l-3.61-5.89c-.05 1.86-.26 3.71-.63 5.52-.24 1.2-.71 2.57-1.87 2.98-1.23.44-2.61-.54-3.07-1.77-.47-1.22-.27-2.59-.07-3.88-.58-.63-1.63-.06-2.19.6-.56.65-1.27 1.47-2.1 1.22-.77-.23-.96-1.21-1.02-2-.44-5.7-.89-11.41-1.33-17.11-4.2-4.3-8.39-8.6-12.59-12.9-2.37-2.42-5.43-4.82-7.4-7.58-3.17-4.44-2.45-13.19-3.01-18.73"/>
        <path fill="#E6E6E6" fill-rule="nonzero" d="M409.32 247.34c.3-1.63-.06-3.31-.06-4.97.01-1.66.53-3.51 1.99-4.3 1.65-.89 3.67-.06 5.35.78 1.56.78 3.13 1.56 4.69 2.33-3.52-1.75-5.77-5.52-7.76-8.67-2.41-3.82-6.32-6.85-9.88-9.57-.32 5.11-.12 10.26.59 15.33.21 1.5.48 3.03 1.17 4.38.7 1.35 1.9 2.51 3.39 2.81"/>
        <path stroke="#514E4F" stroke-linecap="round" stroke-linejoin="round" stroke-width="2" d="M402.98 217.72c.08.71.12 1.1.2 1.81l2.58 23.75M98.49 486.86H688"/>
        <path fill="#E1E1E1" fill-rule="nonzero" d="M260.09 332.06c.1.86-.59 1.58-1.14 2.26-2.58 3.14-2.7 8.05-.27 11.3 1.31 1.76 3.2 2.99 4.8 4.5 1.04.98 1.82 2.8 2.36 4.5.68 2.14 3.11 3.13 5.07 2.04 2.45-1.36 5.25-3.36 6.19-5.73 1.78-4.49 1.26-9.7-.85-14.04-1.28-2.62-3.13-5.04-3.63-7.92"/>
        <path fill="#C8C8C8" fill-rule="nonzero" d="M266.38 340.08c1.21-1.47 3.15-2.24 5.06-2.3 1.91-.06 3.79.53 5.49 1.4l.01-.7c-.21-.54-.43-1.07-.69-1.59-1.28-2.62-3.13-5.04-3.63-7.92l-12.54 3.09c.1.86-.59 1.58-1.14 2.26-2.58 3.14-2.7 8.05-.27 11.3 1.31 1.76 3.2 2.99 4.8 4.5.27.26.53.58.77.93-.02-1.93.09-3.87.33-5.78.24-1.85.63-3.76 1.81-5.19"/>
        <path stroke="#514E4F" stroke-linecap="round" stroke-linejoin="round" stroke-width="2" d="M156.64 304.75s-12.12 16.42-12.13 16.44c-9.55 12.83 4.22 22.74 12.28 31.29 6.22 6.6 12.62 13.06 18.66 19.81 3.77 4.21 3.99 10.05 6.96 14.86M235.92 238.58l-14.61 3.3a41.826 41.826 0 0 0-23.34 14.52l-8.34 10.74M367.54 220.9l-58.86 2.18c-3.22.12-6.42.54-9.57 1.25l-20.4 4.6M316.3 485.21c-.59-41.04-11.58-78.09-13.79-119.89-.07-1.32-.02-2.64.14-3.95l13.73-113.32M363.41 236.38l-47.03 19.18M197.19 299.26l11.98-8.57M207.97 281.87l10.51 72.78c.3 2.06.22 4.15-.24 6.17-.6 2.67-1.53 6.76-2.52 11.08M275.67 215.77l2.71 12.49"/>
        <path stroke="#514E4F" stroke-linecap="round" stroke-linejoin="round" stroke-width="2" d="M228.09 240.8c-6.34 3.17 4.29 10.16 6.7 12.09 14.55 11.7 32.25 20.19 50.15 25.23 6 1.69 12.1 2.99 18.27 3.88 3.44.5 7.75.47 9.43-2.6"/>
        <path fill="#E1E1E1" fill-rule="nonzero" d="M280.43 142.59c-5.45-4.8-12.94-7.44-21.09-7.44-6.91 0-14 1.9-19.97 5.35-5.25 3.03-9.48 7.17-12.23 11.96-4.51 7.83-6.41 17.65-5.15 26.61.24 1.67.95 2.99 2.58 3.64.43.17 2.14.62 2.51.41.66-.37.7-2.34.87-3.1 1-4.62 2.36-9.16 4.04-13.58 1.02-2.66 3-4.53 5.56-5.76 1.37-.66 2.91-.99 4.71-.99 2.64 0 5.43.7 8.13 1.37.6.15 1.18.3 1.76.43 5.11 1.22 10.51 2.67 16.04 4.34 7.35 2.21 22.29 8.26 22.44 8.32.47.19 1.01.13 1.43-.16.42-.29.66-.77.64-1.28-.56-16.45-6.98-25.46-12.27-30.12"/>
        <path stroke="#514E4F" stroke-linecap="round" stroke-linejoin="round" stroke-width="2" d="M226.29 183.58c-1.77-1.46-4.16-4.14-6.89-3.15-3.5 1.26-1.67 7.75-.56 10.18 1.65 3.62 6.34 9.41 10.2 5.09"/>
        <path fill="#E1E1E1" fill-rule="nonzero" d="M270.76 311.08c-2.14-2.23-5.08-3.95-6.07-6.88-.51-1.51-.4-3.15-.55-4.74-.46-5.18-3.72-10.04-8.42-12.32-2.47-1.2-4.23-3.57-4.32-6.31-.17-5.02-2.5-9.95-6.33-13.22-1.61-1.37-3.63-2.74-3.82-4.85-.1-1.17.41-2.3.81-3.41 1.44-3.97 1.56-8.33.96-12.51-.57-4.02-1.77-7.92-2.99-11.8.05-.15.1-.3.15-.44l1.21-23.13-5.61-4.22c-.15.4-.3.79-.45 1.19-5.1 5.94-10.44 13.03-9.01 20.7.25 1.35.71 2.67.69 4.05-.03 1.89-.96 3.63-1.77 5.33-3.11 6.56-4.62 14.47-1.47 21.01.65 1.35 1.49 2.63 1.9 4.08.41 1.47.34 3.02.27 4.55-.17 3.89-.31 7.84.56 11.64.87 3.8 2.86 7.5 6.13 9.61.84.55 1.78 1 2.42 1.77 1.18 1.44.99 3.52 1.13 5.38.39 5.35 4.31 10.27 9.44 11.85 1.11.34 2.33.57 3.19 1.36 1.94 1.78.88 4.95 1.21 7.55.69 5.36 7.34 8.08 9.21 13.04v.03a3.124 3.124 0 0 0 3.07 2.8c2.2.03 5.18.06 7.2.06 1.35 0 2.54-.87 2.96-2.16.52-1.61 1.22-3.79 1.68-5.19 1.66-5.07.3-10.99-3.38-14.82"/>
        <path fill="#C8C8C8" fill-rule="nonzero" d="M249.06 291.66c1.73-1.09 3.54-2.25 4.55-4.04.26-.46.45-.95.59-1.46-1.64-1.31-2.72-3.2-2.8-5.34 0-.11-.01-.23-.02-.34-.16.02.16-.07 0 0 .2 3.95-2.41 8.06-5.8 10.09-3.3 1.97-7.64 2-10.99.13.17.15.33.3.47.47 1.18 1.44.99 3.52 1.13 5.38.15 2.03.81 4 1.84 5.74.09-.06.17-.13.25-.2.49-.47.78-1.11 1.1-1.7 2.1-3.86 5.96-6.38 9.68-8.73M269.91 310.6c.03-.1.04-.2.05-.3-2.02-1.88-4.41-3.52-5.27-6.1a7.99 7.99 0 0 1-.32-1.45c-.66 2.48-2.54 4.64-4.88 5.78-3.03 1.48-6.64 1.4-9.85.37-.54-.17-1.27-.31-1.56.17-.03.05-.04.1-.06.15.29.15.56.32.8.54 1.94 1.78.88 4.95 1.21 7.55.05.42.16.82.28 1.21.48-.35.93-.79 1.33-1.19 4.44-4.46 10.94-6.78 17.2-6.13.27.03.58.05.8-.12.15-.11.22-.29.27-.48M240.67 270.52c2.44-.81 4.84.48 7.24.16.09-.01-.83-1.05-1.82-2.13-.32-.32-.66-.64-1.01-.94-1.46-1.24-3.24-2.49-3.71-4.28-.76 1.49-1.67 2.9-2.9 4.01-1.82 1.65-4.48 2.58-6.8 1.77-2.04-.71-3.57-2.62-5.67-3.08.01.7-.01 1.41-.04 2.11-.17 3.89-.31 7.84.56 11.64.08.37.19.73.29 1.09.05.03.08.07.13.09.92.51 2.11.34 3.03-.18.92-.52 1.64-1.33 2.33-2.12l4.3-4.9c1.16-1.31 2.4-2.69 4.07-3.24M227.35 246.71c.42.03.8.02 1.11-.01 2.2-.21 4.22-1.23 6.19-2.23.89-.45 1.77-.9 2.65-1.35 1.13-.57 2.3-1.18 3.07-2.19 1.38-1.81.27-4-.32-5.89.05-.15.09-.29.15-.44l.14-2.64c-.04-.08-.07-.15-.11-.23-.89 1.77-1.62 3.32-3.51 4.13-1.59.69-3.42.83-5.09.36-.98-.28-1.89-.75-2.77-1.24-.8-.45-1.44-.94-1.82-1.8-.14 1.94-.96 3.6-1.78 5.33-.68 1.43-2.69 4.36-2.26 5.99.39 1.52 2.67 2.11 4.35 2.21"/>
        <path stroke="#514E4F" stroke-linecap="round" stroke-linejoin="round" stroke-width="2" d="M242.44 211.47l-1.92 22.83"/>
        <path stroke="#FFF" stroke-linecap="round" stroke-linejoin="round" stroke-width="2.959" d="M257.17 292.79c.68.66 1.24 1.47 1.66 2.33.76 1.55 1.14 3.25 1.51 4.93M245.48 273.94c1.06 1.94 1.64 4.17 1.51 6.37-.14 2.21-1.03 4.39-2.58 5.96M239.07 250.32c-.2 2.66-.5 5.37-1.47 7.88-.47 1.22-1.09 2.23-1.84 3.12"/>
        <path fill="#C8C8C8" fill-rule="nonzero" d="M287.72 152.02c.14 4.38-3.18 8.42-7.23 10.21-4.23 1.87-9.06 1.77-13.66 1.28-6.86-.74-13.61-2.27-20.34-3.8l-.35.39c1.42.26 2.85.62 4.25.97.6.15 1.18.3 1.76.43 5.11 1.22 10.51 2.67 16.04 4.34 7.35 2.21 22.29 8.26 22.44 8.32a1.498 1.498 0 0 0 2.06-1.44c-.29-8.94-2.33-15.66-4.97-20.7"/>
        <path stroke="#FFF" stroke-linecap="round" stroke-linejoin="round" stroke-width="2" d="M278.76 151.53c.61.85 1.15 1.72 1.63 2.63M260.35 142.7c5.3-1.07 10.79 1.47 14.83 4.97"/>
        <path stroke="#D1D1D1" stroke-linecap="round" stroke-linejoin="round" stroke-width="2" d="M244.72 159.64s36.94 9.53 46.69 14.49l-.18-2.53"/>
        <path stroke="#514E4F" stroke-linecap="round" stroke-linejoin="round" stroke-width="2" d="M432.55 279.59c-.21.75-.48 1.49-.8 2.22-.41.92-1.22 1.99-2.39 1.91-.51-.04-.97-.31-1.26-.73-.79-1.12-.6-3.46-.66-4.84l-.24-5.24c-.11-2.46-.22-4.92-.34-7.38 0-.94-.08-1-.68-1.61l-11.6-11.72c-2.94-2.97-5.88-5.94-8.82-8.92M444.67 277.37c.99 1.97 2.9 4.03 5.05 5.21.23.13.52.25.8.19.5-.11.62-.65.57-1.07-1.65-12.23-14.97-23.25-14.97-23.25-11.47-15.42-18.96-22.49-32.28-36.34M432.72 276.36c.14 3.04.31 5.1.58 8.13.1 1.08.22 2.19.91 3.11.38.51 1.09.98 1.88.82.86-.17 1.2-.94 1.37-1.58.96-3.7.75-7.57.42-11.26"/>
        <path stroke="#514E4F" stroke-linecap="round" stroke-linejoin="round" stroke-width="2" d="M438.15 278.29c.68 2.83 3.14 7.19 5.53 9.35.3.28.71.57 1.21.5.65-.08.91-.68.99-1.17.28-1.86-.13-3.71-.54-5.53-.5-2.24-1.01-4.49-1.51-6.73M197.21 386.63c.3 1.36.42 2.84.23 4.22-.18 1.34-.41 2.68-.57 4.03-.12.98-.09 2.2 1.09 2.56 1.02.31 2.01-.58 2.56-1.49 2.71-4.44 1.63-12.06-.47-16.53-.82-1.74-1.5-3.69-2.71-5.16-1.25-1.52-2.73-2.8-4.23-4.07-1.49-1.25-4.65-4.31-4.65-4.31-9.29-12.09-18.92-28.01-28.65-39.85"/>
        <path stroke="#514E4F" stroke-linecap="round" stroke-linejoin="round" stroke-width="2" d="M191.56 387.14c.31 3.6-.16 6.41-1.27 9.86-.11.33-.22.67-.21 1.02.03.86.85 1.55 1.7 1.63.86.08 1.69-.34 2.33-.91 1.36-1.23 2.44-3.58 2.96-5.34M185.74 387.45c-.44 3.23-.99 6.45-1.64 9.65-.17.83-.3 1.79.27 2.41.22.24.52.39.83.5 1.67.58 3.68-.04 4.73-1.46M275.82 198.14l-21.99 2.75s4.95 6.47 11.62 5.78c6.66-.68 10.39-8.26 10.39-8.26"/>
        <path stroke="#514E4F" stroke-linecap="round" stroke-linejoin="round" stroke-width="2" d="M259.98 218.54c8.8.84 18.58-2.2 23.59-9.71 5.84-8.75 9.47-21.51 9.03-33.64"/>
        <path stroke="#514E4F" stroke-linecap="round" stroke-linejoin="round" stroke-width="2" d="M293.24 174.63c.32-.26.67-.46 1.07-.55 1.05-.23 2.13.46 2.66 1.39.53.93.62 2.05.59 3.12-.05 1.93-.43 3.83-.92 5.7-.51 1.94-1.16 3.9-2.43 5.44-.77.94-1.82 1.7-2.97 2.07"/>
        <path stroke="#C8C8C8" stroke-linecap="round" stroke-linejoin="round" stroke-width="2.959" d="M235.35 208.44c-5.1 5.94-10.44 13.03-9.01 20.7.25 1.35.71 2.67.69 4.05-.03 1.89-.96 3.63-1.77 5.33-3.11 6.56-4.62 14.47-1.47 21.01.65 1.35 1.49 2.63 1.9 4.08.41 1.47.34 3.02.27 4.55-.17 3.89-.31 7.84.56 11.64.87 3.8 2.86 7.5 6.13 9.61.84.54 1.78 1 2.42 1.77 1.18 1.44.99 3.52 1.13 5.38.39 5.35 4.31 10.27 9.44 11.85 1.12.34 2.33.57 3.19 1.36 1.94 1.78.88 4.95 1.21 7.55.51 4.02 4.38 6.55 7.07 9.66"/>
        <path stroke="#514E4F" stroke-linecap="round" stroke-linejoin="round" stroke-width="2" d="M229.4 196.69c1.44 2.65 3.16 5.15 5.13 7.43 2.35 2.72 5 5.22 7.91 7.35"/>
        <path stroke="#C8C8C8" stroke-linecap="round" stroke-linejoin="round" stroke-width="2" d="M258.28 337.95c-1.04 1.32-.89 3.27-.14 4.78.75 1.51 2 2.69 3.12 3.95 2.3 2.58 4.14 5.55 5.42 8.75"/>
        <path fill="#FFF" fill-rule="nonzero" d="M276.02 331.74c.68-.44 1.19-1.07 1.26-1.9.13-1.5-.68-3.51-1.91-4.39-1.13-.8-2.83-.89-3.88-.26-.87.52-1.74 1.21-2.75 1.1-.87-.1-1.68-.77-2.55-1.05-2.52-.81-3.11 1.81-4.88 2.7-1.79.9-3.98.06-5.69.81-.6.27-1.04.83-1.25 1.45-.21.62-.21 1.3-.09 1.95.15.81.48 1.59.95 2.26.7.99 2.1 1.58 3.33 1.48 1.51-.13 2.27-1.73 3.84-1.57 1.17.11 1.88 1.21 2.99 1.43.96.19 2.37-.13 3.01-.93.55-.69.57-1.58 1.38-2.16 1.31-.95 2.74-.08 4.15-.21.7-.08 1.47-.31 2.09-.71"/>
        <path stroke="#514E4F" stroke-linecap="round" stroke-linejoin="round" stroke-width="2" d="M276.02 331.74c.68-.44 1.19-1.07 1.26-1.9.13-1.5-.68-3.51-1.91-4.39-1.13-.8-2.83-.89-3.88-.26-.87.52-1.74 1.21-2.75 1.1-.87-.1-1.68-.77-2.55-1.05-2.52-.81-3.11 1.81-4.88 2.7-1.79.9-3.98.06-5.69.81-.6.27-1.04.83-1.25 1.45-.21.62-.21 1.3-.09 1.95.15.81.48 1.59.95 2.26.7.99 2.1 1.58 3.33 1.48 1.51-.13 2.27-1.73 3.84-1.57 1.17.11 1.88 1.21 2.99 1.43.96.19 2.37-.13 3.01-.93.55-.69.57-1.58 1.38-2.16 1.31-.95 2.74-.08 4.15-.21.7-.08 1.47-.31 2.09-.71zM191.55 446.11a532.78 532.78 0 0 1-10.76 39.87"/>
        <path stroke="#0223C9" stroke-linecap="round" stroke-linejoin="round" stroke-width="2" d="M202.45 485.4l-19.02-78.56"/>
        <path stroke="#5D72DC" stroke-linecap="round" stroke-linejoin="round" stroke-width="2" d="M186.63 263.56l53.99 223.02"/>
    </g>
</svg>
